<?xml version="1.0" encoding="UTF-8" standalone="no"?><svg xmlns="http://www.w3.org/2000/svg" xmlns:xlink="http://www.w3.org/1999/xlink" contentScriptType="application/ecmascript" contentStyleType="text/css" height="703px" preserveAspectRatio="none" style="width:1434px;height:703px;" version="1.1" viewBox="0 0 1434 703" width="1434px" zoomAndPan="magnify"><defs><filter height="300%" id="f1cf67lahorslt" width="300%" x="-1" y="-1"><feGaussianBlur result="blurOut" stdDeviation="2.0"/><feColorMatrix in="blurOut" result="blurOut2" type="matrix" values="0 0 0 0 0 0 0 0 0 0 0 0 0 0 0 0 0 0 .4 0"/><feOffset dx="4.0" dy="4.0" in="blurOut2" result="blurOut3"/><feBlend in="SourceGraphic" in2="blurOut3" mode="normal"/></filter></defs><g><!--MD5=[0587fd839ddca254ec8e0844e75601a7]
cluster medseal-vpc (10.0.0.0/16)--><rect fill="#FFFFFF" filter="url(#f1cf67lahorslt)" height="521" style="stroke: #000000; stroke-width: 1.5;" width="1384" x="22" y="171"/><text fill="#000000" font-family="sans-serif" font-size="14" font-weight="bold" lengthAdjust="spacingAndGlyphs" textLength="207" x="610.5" y="185.9951">medseal-vpc (10.0.0.0/16)</text><!--MD5=[082f115042200615c06178f83ef54cc4]
cluster medseal-subnet\npods: 10.1.0.0/16\nservices: 10.2.0.0/16--><rect fill="#FFFFFF" filter="url(#f1cf67lahorslt)" height="308" style="stroke: #000000; stroke-width: 1.5;" width="1336" x="46" y="214"/><text fill="#000000" font-family="sans-serif" font-size="14" font-weight="bold" lengthAdjust="spacingAndGlyphs" textLength="127" x="650.5" y="228.9951">medseal-subnet</text><text fill="#000000" font-family="sans-serif" font-size="14" font-weight="bold" lengthAdjust="spacingAndGlyphs" textLength="140" x="644" y="245.292">pods: 10.1.0.0/16</text><text fill="#000000" font-family="sans-serif" font-size="14" font-weight="bold" lengthAdjust="spacingAndGlyphs" textLength="168" x="630" y="261.5889">services: 10.2.0.0/16</text><!--MD5=[a7d6d51beaefe53fb45bee6f5bcdca6c]
cluster GKE Autopilot--><polygon fill="#FFFFFF" filter="url(#f1cf67lahorslt)" points="70,299,80,289,1358,289,1358,488,1348,498,70,498,70,299" style="stroke: #000000; stroke-width: 1.5;"/><line style="stroke: #000000; stroke-width: 1.5;" x1="1348" x2="1357" y1="299" y2="290"/><line style="stroke: #000000; stroke-width: 1.5;" x1="70" x2="1348" y1="299" y2="299"/><line style="stroke: #000000; stroke-width: 1.5;" x1="1348" x2="1348" y1="299" y2="498"/><text fill="#000000" font-family="sans-serif" font-size="14" font-weight="bold" lengthAdjust="spacingAndGlyphs" textLength="108" x="656" y="314.9951">GKE Autopilot</text><!--MD5=[9a241e2b4b0abba872f8968a6c18a997]
cluster Private Services Access--><rect fill="#FFFFFF" filter="url(#f1cf67lahorslt)" height="113" style="stroke: #000000; stroke-width: 1.5;" width="700" x="452" y="555"/><text fill="#000000" font-family="sans-serif" font-size="14" font-weight="bold" lengthAdjust="spacingAndGlyphs" textLength="190" x="707" y="569.9951">Private Services Access</text><!--MD5=[07074073229a58b98d86dbf75a12e332]
cluster Internet--><rect fill="#FFFFFF" filter="url(#f1cf67lahorslt)" height="114" style="stroke: #000000; stroke-width: 1.5;" width="204" x="618" y="24"/><text fill="#000000" font-family="sans-serif" font-size="14" font-weight="bold" lengthAdjust="spacingAndGlyphs" textLength="63" x="688.5" y="38.9951">Internet</text><!--MD5=[c0fcde399db9bffac392b7b846ffb82a]
entity OE--><rect fill="#FEFECE" filter="url(#f1cf67lahorslt)" height="46.2969" style="stroke: #A80036; stroke-width: 1.5;" width="139" x="86.5" y="329"/><rect fill="#FEFECE" height="10" style="stroke: #A80036; stroke-width: 1.5;" width="15" x="205.5" y="334"/><rect fill="#FEFECE" height="2" style="stroke: #A80036; stroke-width: 1.5;" width="4" x="203.5" y="336"/><rect fill="#FEFECE" height="2" style="stroke: #A80036; stroke-width: 1.5;" width="4" x="203.5" y="340"/><text fill="#000000" font-family="sans-serif" font-size="14" lengthAdjust="spacingAndGlyphs" textLength="99" x="101.5" y="361.9951">Pod: openemr</text><!--MD5=[585f923d6ab20c815228e62f40801d15]
entity MedSrv--><rect fill="#FEFECE" filter="url(#f1cf67lahorslt)" height="46.2969" style="stroke: #A80036; stroke-width: 1.5;" width="189" x="937.5" y="436"/><rect fill="#FEFECE" height="10" style="stroke: #A80036; stroke-width: 1.5;" width="15" x="1106.5" y="441"/><rect fill="#FEFECE" height="2" style="stroke: #A80036; stroke-width: 1.5;" width="4" x="1104.5" y="443"/><rect fill="#FEFECE" height="2" style="stroke: #A80036; stroke-width: 1.5;" width="4" x="1104.5" y="447"/><text fill="#000000" font-family="sans-serif" font-size="14" lengthAdjust="spacingAndGlyphs" textLength="149" x="952.5" y="468.9951">Pod: medplum-server</text><!--MD5=[a343950af2821620218d5a1c83abfcb9]
entity MedApp--><rect fill="#FEFECE" filter="url(#f1cf67lahorslt)" height="46.2969" style="stroke: #A80036; stroke-width: 1.5;" width="172" x="261" y="329"/><rect fill="#FEFECE" height="10" style="stroke: #A80036; stroke-width: 1.5;" width="15" x="413" y="334"/><rect fill="#FEFECE" height="2" style="stroke: #A80036; stroke-width: 1.5;" width="4" x="411" y="336"/><rect fill="#FEFECE" height="2" style="stroke: #A80036; stroke-width: 1.5;" width="4" x="411" y="340"/><text fill="#000000" font-family="sans-serif" font-size="14" lengthAdjust="spacingAndGlyphs" textLength="132" x="276" y="361.9951">Pod: medplum-app</text><!--MD5=[ababbe2c331c6749e5177501ecdcd0d2]
entity AISvc--><rect fill="#FEFECE" filter="url(#f1cf67lahorslt)" height="46.2969" style="stroke: #A80036; stroke-width: 1.5;" width="141" x="468.5" y="329"/><rect fill="#FEFECE" height="10" style="stroke: #A80036; stroke-width: 1.5;" width="15" x="589.5" y="334"/><rect fill="#FEFECE" height="2" style="stroke: #A80036; stroke-width: 1.5;" width="4" x="587.5" y="336"/><rect fill="#FEFECE" height="2" style="stroke: #A80036; stroke-width: 1.5;" width="4" x="587.5" y="340"/><text fill="#000000" font-family="sans-serif" font-size="14" lengthAdjust="spacingAndGlyphs" textLength="101" x="483.5" y="361.9951">Pod: ai-service</text><!--MD5=[64e3f0ab5274fed40e3ed55cd531e99d]
entity AIUI--><rect fill="#FEFECE" filter="url(#f1cf67lahorslt)" height="46.2969" style="stroke: #A80036; stroke-width: 1.5;" width="151" x="644.5" y="329"/><rect fill="#FEFECE" height="10" style="stroke: #A80036; stroke-width: 1.5;" width="15" x="775.5" y="334"/><rect fill="#FEFECE" height="2" style="stroke: #A80036; stroke-width: 1.5;" width="4" x="773.5" y="336"/><rect fill="#FEFECE" height="2" style="stroke: #A80036; stroke-width: 1.5;" width="4" x="773.5" y="340"/><text fill="#000000" font-family="sans-serif" font-size="14" lengthAdjust="spacingAndGlyphs" textLength="111" x="659.5" y="361.9951">Pod: ai-frontend</text><!--MD5=[33308ecb4bfdae229605c9490514d37e]
entity PACS--><rect fill="#FEFECE" filter="url(#f1cf67lahorslt)" height="46.2969" style="stroke: #A80036; stroke-width: 1.5;" width="129" x="830.5" y="329"/><rect fill="#FEFECE" height="10" style="stroke: #A80036; stroke-width: 1.5;" width="15" x="939.5" y="334"/><rect fill="#FEFECE" height="2" style="stroke: #A80036; stroke-width: 1.5;" width="4" x="937.5" y="336"/><rect fill="#FEFECE" height="2" style="stroke: #A80036; stroke-width: 1.5;" width="4" x="937.5" y="340"/><text fill="#000000" font-family="sans-serif" font-size="14" lengthAdjust="spacingAndGlyphs" textLength="89" x="845.5" y="361.9951">Pod: orthanc</text><!--MD5=[e772e095dee4ea44c03124ed1e8c3390]
entity OHIF--><rect fill="#FEFECE" filter="url(#f1cf67lahorslt)" height="46.2969" style="stroke: #A80036; stroke-width: 1.5;" width="150" x="1192" y="329"/><rect fill="#FEFECE" height="10" style="stroke: #A80036; stroke-width: 1.5;" width="15" x="1322" y="334"/><rect fill="#FEFECE" height="2" style="stroke: #A80036; stroke-width: 1.5;" width="4" x="1320" y="336"/><rect fill="#FEFECE" height="2" style="stroke: #A80036; stroke-width: 1.5;" width="4" x="1320" y="340"/><text fill="#000000" font-family="sans-serif" font-size="14" lengthAdjust="spacingAndGlyphs" textLength="110" x="1207" y="361.9951">Pod: ohif-viewer</text><!--MD5=[fffdccea5c50c3e012980ee04cb2b728]
entity Sync--><rect fill="#FEFECE" filter="url(#f1cf67lahorslt)" height="46.2969" style="stroke: #A80036; stroke-width: 1.5;" width="162" x="995" y="329"/><rect fill="#FEFECE" height="10" style="stroke: #A80036; stroke-width: 1.5;" width="15" x="1137" y="334"/><rect fill="#FEFECE" height="2" style="stroke: #A80036; stroke-width: 1.5;" width="4" x="1135" y="336"/><rect fill="#FEFECE" height="2" style="stroke: #A80036; stroke-width: 1.5;" width="4" x="1135" y="340"/><text fill="#000000" font-family="sans-serif" font-size="14" lengthAdjust="spacingAndGlyphs" textLength="122" x="1010" y="361.9951">Pod: sync-service</text><!--MD5=[993e0d4fdeccee87e9dafe04241cdfbd]
entity MySQL--><path d="M468.5,600 C468.5,590 539,590 539,590 C539,590 609.5,590 609.5,600 L609.5,641.5938 C609.5,651.5938 539,651.5938 539,651.5938 C539,651.5938 468.5,651.5938 468.5,641.5938 L468.5,600 " fill="#FEFECE" filter="url(#f1cf67lahorslt)" style="stroke: #000000; stroke-width: 1.5;"/><path d="M468.5,600 C468.5,610 539,610 539,610 C539,610 609.5,610 609.5,600 " fill="none" style="stroke: #000000; stroke-width: 1.5;"/><text fill="#000000" font-family="sans-serif" font-size="14" lengthAdjust="spacingAndGlyphs" textLength="121" x="478.5" y="626.9951">Cloud SQL MySQL</text><text fill="#000000" font-family="sans-serif" font-size="14" lengthAdjust="spacingAndGlyphs" textLength="75" x="478.5" y="643.292">10.195.0.3</text><!--MD5=[f6b3c4ec609d704a8f29c3992fcc8101]
entity PG--><path d="M644.5,600 C644.5,590 723,590 723,590 C723,590 801.5,590 801.5,600 L801.5,641.5938 C801.5,651.5938 723,651.5938 723,651.5938 C723,651.5938 644.5,651.5938 644.5,641.5938 L644.5,600 " fill="#FEFECE" filter="url(#f1cf67lahorslt)" style="stroke: #000000; stroke-width: 1.5;"/><path d="M644.5,600 C644.5,610 723,610 723,610 C723,610 801.5,610 801.5,600 " fill="none" style="stroke: #000000; stroke-width: 1.5;"/><text fill="#000000" font-family="sans-serif" font-size="14" lengthAdjust="spacingAndGlyphs" textLength="137" x="654.5" y="626.9951">Cloud SQL Postgres</text><text fill="#000000" font-family="sans-serif" font-size="14" lengthAdjust="spacingAndGlyphs" textLength="75" x="654.5" y="643.292">10.195.0.5</text><!--MD5=[f96d690baea4a0823d36c98ba0c3a2b4]
entity Redis--><path d="M982,600 C982,590 1059,590 1059,590 C1059,590 1136,590 1136,600 L1136,641.5938 C1136,651.5938 1059,651.5938 1059,651.5938 C1059,651.5938 982,651.5938 982,641.5938 L982,600 " fill="#FEFECE" filter="url(#f1cf67lahorslt)" style="stroke: #000000; stroke-width: 1.5;"/><path d="M982,600 C982,610 1059,610 1059,610 C1059,610 1136,610 1136,600 " fill="none" style="stroke: #000000; stroke-width: 1.5;"/><text fill="#000000" font-family="sans-serif" font-size="14" lengthAdjust="spacingAndGlyphs" textLength="134" x="992" y="626.9951">Memorystore Redis</text><text fill="#000000" font-family="sans-serif" font-size="14" lengthAdjust="spacingAndGlyphs" textLength="75" x="992" y="643.292">10.195.1.3</text><!--MD5=[ce3173b5a33f0c0cbda863f47c49e4bb]
entity NFS--><rect fill="#FEFECE" filter="url(#f1cf67lahorslt)" height="36.2969" rx="35" ry="35" style="stroke: #000000; stroke-width: 1.5;" width="110" x="837" y="603"/><text fill="#000000" font-family="sans-serif" font-size="14" lengthAdjust="spacingAndGlyphs" textLength="90" x="847" y="625.9951">Filestore NFS</text><!--MD5=[b77750067e160c5e66c823a87f4eba16]
entity LB--><rect fill="#FEFECE" filter="url(#f1cf67lahorslt)" height="62.5938" style="stroke: #A80036; stroke-width: 1.5;" width="171" x="634.5" y="59"/><rect fill="#FEFECE" height="10" style="stroke: #A80036; stroke-width: 1.5;" width="15" x="785.5" y="64"/><rect fill="#FEFECE" height="2" style="stroke: #A80036; stroke-width: 1.5;" width="4" x="783.5" y="66"/><rect fill="#FEFECE" height="2" style="stroke: #A80036; stroke-width: 1.5;" width="4" x="783.5" y="70"/><text fill="#000000" font-family="sans-serif" font-size="14" lengthAdjust="spacingAndGlyphs" textLength="131" x="649.5" y="91.9951">GCE Load Balancer</text><text fill="#000000" font-family="sans-serif" font-size="14" lengthAdjust="spacingAndGlyphs" textLength="93" x="649.5" y="108.292">34.54.226.15</text><!--MD5=[898cc65165536c597a9da7c16e3b928e]
link LB to OE--><path d="M634.29,94.74 C514.04,100.87 303.23,117.87 243,163 C190.28,202.5 168.47,281.72 160.32,323.6 " fill="none" id="LB-&gt;OE" style="stroke: #A80036; stroke-width: 1.0;"/><polygon fill="#A80036" points="159.35,328.76,164.9515,320.6592,160.2783,323.8469,157.0906,319.1738,159.35,328.76" style="stroke: #A80036; stroke-width: 1.0;"/><!--MD5=[8c381c940533afe296a91d8cd287620e]
link LB to MedSrv--><path d="M805.51,94.82 C971.35,102.16 1323.66,122.38 1360,163 C1422.82,233.23 1417.88,300.65 1360,375 C1332.05,410.9 1217.82,433.75 1131.96,446.19 " fill="none" id="LB-&gt;MedSrv" style="stroke: #A80036; stroke-width: 1.0;"/><polygon fill="#A80036" points="1126.87,446.92,1136.3496,449.5917,1131.8186,446.2049,1135.2054,441.6739,1126.87,446.92" style="stroke: #A80036; stroke-width: 1.0;"/><!--MD5=[e9e44f55b35fa11a82526bd1ee056926]
link LB to MedApp--><path d="M634.43,96.96 C577.37,104.47 503.48,122.05 451,163 C397.17,205.01 367.15,283.07 354.41,324.14 " fill="none" id="LB-&gt;MedApp" style="stroke: #A80036; stroke-width: 1.0;"/><polygon fill="#A80036" points="352.94,328.96,359.388,321.5153,354.3964,324.1768,351.7349,319.1851,352.94,328.96" style="stroke: #A80036; stroke-width: 1.0;"/><!--MD5=[57fd22070b8dec6aa74cf29214fa9a53]
link LB to AISvc--><path d="M671.25,122.16 C655.72,133.6 639.37,147.6 627,163 C586.62,213.29 559.69,285.14 547.14,323.84 " fill="none" id="LB-&gt;AISvc" style="stroke: #A80036; stroke-width: 1.0;"/><polygon fill="#A80036" points="545.54,328.84,552.0814,321.4773,547.0566,324.0756,544.4583,319.0507,545.54,328.84" style="stroke: #A80036; stroke-width: 1.0;"/><!--MD5=[92ecb91b486b29dad1f2f6776857c184]
link LB to AIUI--><path d="M720,122.03 C720,173.09 720,275 720,323.77 " fill="none" id="LB-&gt;AIUI" style="stroke: #A80036; stroke-width: 1.0;"/><polygon fill="#A80036" points="720,328.89,724,319.89,720,323.89,716,319.89,720,328.89" style="stroke: #A80036; stroke-width: 1.0;"/><!--MD5=[8b74b0d920f09df6a48c3519fc55b64e]
link LB to PACS--><path d="M769.47,122.32 C784.87,133.69 800.96,147.59 813,163 C852.24,213.21 876.69,285.1 887.85,323.81 " fill="none" id="LB-&gt;PACS" style="stroke: #A80036; stroke-width: 1.0;"/><polygon fill="#A80036" points="889.28,328.82,890.6805,319.0712,887.9196,324.0086,882.9822,321.2478,889.28,328.82" style="stroke: #A80036; stroke-width: 1.0;"/><!--MD5=[1537e4eb6076fbbcaffef2e224e4ee42]
link LB to OHIF--><path d="M805.52,95.63 C920.69,102.73 1117.82,120.8 1175,163 C1228.66,202.6 1252.67,282.05 1261.96,323.86 " fill="none" id="LB-&gt;OHIF" style="stroke: #A80036; stroke-width: 1.0;"/><polygon fill="#A80036" points="1263.02,328.77,1265.0262,319.1276,1261.9626,323.8831,1257.2071,320.8195,1263.02,328.77" style="stroke: #A80036; stroke-width: 1.0;"/><!--MD5=[926acebdc36f94a031a23e76276ff245]
link OE to MySQL--><path d="M187.67,375.08 C254.93,421.97 412.34,531.7 491.61,586.97 " fill="none" id="OE-&gt;MySQL" style="stroke: #A80036; stroke-width: 1.0;"/><polygon fill="#A80036" points="495.79,589.88,490.6793,581.461,491.6832,587.028,486.1161,588.0319,495.79,589.88" style="stroke: #A80036; stroke-width: 1.0;"/><!--MD5=[600f1d655d09f4890c5ae1153a479187]
link MedSrv to PG--><path d="M965.97,482.13 C923.08,497.7 866.68,520.44 820,547 C800.07,558.34 779.57,573.22 762.57,586.59 " fill="none" id="MedSrv-&gt;PG" style="stroke: #A80036; stroke-width: 1.0;"/><polygon fill="#A80036" points="758.33,589.95,767.8688,587.4981,762.2496,586.8458,762.902,581.2266,758.33,589.95" style="stroke: #A80036; stroke-width: 1.0;"/><!--MD5=[9095656629584bf207b3941f2af665ee]
link MedSrv to Redis--><path d="M1035.75,482.25 C1040.22,508.71 1047.73,553.22 1053,584.47 " fill="none" id="MedSrv-&gt;Redis" style="stroke: #A80036; stroke-width: 1.0;"/><polygon fill="#A80036" points="1053.9,589.75,1056.3525,580.2114,1053.0711,584.8192,1048.4633,581.5377,1053.9,589.75" style="stroke: #A80036; stroke-width: 1.0;"/><!--MD5=[9c10c7164031489e7912dda256101b48]
link AISvc to PG--><path d="M575.02,375.18 C596.98,390.16 624.32,411.61 643,436 C678.17,481.92 701.37,545.68 713.34,584.82 " fill="none" id="AISvc-&gt;PG" style="stroke: #A80036; stroke-width: 1.0;"/><polygon fill="#A80036" points="714.88,589.94,716.1118,580.1685,713.4367,585.1528,708.4523,582.4777,714.88,589.94" style="stroke: #A80036; stroke-width: 1.0;"/><text fill="#000000" font-family="sans-serif" font-size="13" lengthAdjust="spacingAndGlyphs" textLength="28" x="694" y="463.5669">SSO</text><!--MD5=[861e806b326443818d17b4ca6d9d9e47]
link AISvc to MySQL--><path d="M539,375.31 C539,421.69 539,528.85 539,584.7 " fill="none" id="AISvc-&gt;MySQL" style="stroke: #A80036; stroke-width: 1.0;"/><polygon fill="#A80036" points="539,589.95,543,580.95,539,584.95,535,580.95,539,589.95" style="stroke: #A80036; stroke-width: 1.0;"/><text fill="#000000" font-family="sans-serif" font-size="13" lengthAdjust="spacingAndGlyphs" textLength="94" x="540" y="463.5669">OpenEMR sync</text><!--MD5=[0c1516cb92c28736e3ceb759b5c3d038]
link PACS to NFS--><path d="M894.75,375.31 C894.18,425.61 892.82,547.42 892.25,597.71 " fill="none" id="PACS-&gt;NFS" style="stroke: #A80036; stroke-width: 1.0;"/><polygon fill="#A80036" points="892.19,602.92,896.2926,593.9663,892.2471,597.9203,888.2931,593.8749,892.19,602.92" style="stroke: #A80036; stroke-width: 1.0;"/><!--MD5=[6303000cf02af660eab2778ad02e34bc]
link Sync to MedSrv--><path d="M1066.78,375.01 C1059.96,391.28 1050.63,413.53 1043.36,430.9 " fill="none" id="Sync-&gt;MedSrv" style="stroke: #A80036; stroke-width: 1.0;"/><polygon fill="#A80036" points="1041.36,435.66,1048.5213,428.8986,1043.2881,431.0467,1041.14,425.8136,1041.36,435.66" style="stroke: #A80036; stroke-width: 1.0;"/><!--MD5=[b687553e03f3c1ec0a8e9edd9055d8d1]
link Sync to MySQL--><path d="M1101.54,375.23 C1117.09,390.53 1135.54,412.32 1144,436 C1158.06,475.34 1173.05,499.98 1144,530 C1124.02,550.65 653.87,536.8 627,547 C605.27,555.25 585.01,571.22 569.42,586.12 " fill="none" id="Sync-&gt;MySQL" style="stroke: #A80036; stroke-width: 1.0;"/><polygon fill="#A80036" points="565.56,589.89,574.8015,586.4848,569.1452,586.4048,569.2252,580.7485,565.56,589.89" style="stroke: #A80036; stroke-width: 1.0;"/><!--MD5=[aec01eca3a5e0cc2d14fc722e89ba0e6]
@startuml
skinparam componentStyle uml2

rectangle "medseal-vpc (10.0.0.0/16)" {

  rectangle "medseal-subnet\npods: 10.1.0.0/16\nservices: 10.2.0.0/16" {
    node "GKE Autopilot" {
      component "Pod: openemr" as OE
      component "Pod: medplum-server" as MedSrv
      component "Pod: medplum-app" as MedApp
      component "Pod: ai-service" as AISvc
      component "Pod: ai-frontend" as AIUI
      component "Pod: orthanc" as PACS
      component "Pod: ohif-viewer" as OHIF
      component "Pod: sync-service" as Sync
    }
  }

  rectangle "Private Services Access" {
    database "Cloud SQL MySQL\n10.195.0.3" as MySQL
    database "Cloud SQL Postgres\n10.195.0.5" as PG
    database "Memorystore Redis\n10.195.1.3" as Redis
    storage "Filestore NFS" as NFS
  }
}

rectangle "Internet" {
  component "GCE Load Balancer\n34.54.226.15" as LB
}

LB - -> OE
LB - -> MedSrv
LB - -> MedApp
LB - -> AISvc
LB - -> AIUI
LB - -> PACS
LB - -> OHIF

OE - -> MySQL
MedSrv - -> PG
MedSrv - -> Redis
AISvc - -> PG : SSO
AISvc - -> MySQL : OpenEMR sync
PACS - -> NFS

Sync - -> MedSrv
Sync - -> MySQL
@enduml

PlantUML version 1.2020.02(Sun Mar 01 10:22:07 UTC 2020)
(GPL source distribution)
Java Runtime: OpenJDK Runtime Environment
JVM: OpenJDK 64-Bit Server VM
Java Version: 17.0.18+8
Operating System: Linux
Default Encoding: UTF-8
Language: en
Country: null
--></g></svg>