<?xml version="1.0" encoding="UTF-8" standalone="no"?><svg xmlns="http://www.w3.org/2000/svg" xmlns:xlink="http://www.w3.org/1999/xlink" contentScriptType="application/ecmascript" contentStyleType="text/css" height="784px" preserveAspectRatio="none" style="width:1070px;height:784px;" version="1.1" viewBox="0 0 1070 784" width="1070px" zoomAndPan="magnify"><defs><filter height="300%" id="f11abs9nw0prbm" width="300%" x="-1" y="-1"><feGaussianBlur result="blurOut" stdDeviation="2.0"/><feColorMatrix in="blurOut" result="blurOut2" type="matrix" values="0 0 0 0 0 0 0 0 0 0 0 0 0 0 0 0 0 0 .4 0"/><feOffset dx="4.0" dy="4.0" in="blurOut2" result="blurOut3"/><feBlend in="SourceGraphic" in2="blurOut3" mode="normal"/></filter></defs><g><!--MD5=[7f41f016c54a338e982b4de1fd37e0f0]
cluster External Trust Boundary--><rect fill="#FFFFFF" filter="url(#f11abs9nw0prbm)" height="592.5" style="stroke: #000000; stroke-width: 1.0; stroke-dasharray: 7.0,7.0;" width="753" x="79.5" y="180.5"/><text fill="#000000" font-family="sans-serif" font-size="14" font-weight="bold" lengthAdjust="spacingAndGlyphs" textLength="191" x="360.5" y="195.4951">External Trust Boundary</text><!--MD5=[3b4e4caab8dfed8b5219fc359236669c]
cluster Internal Trust Boundary--><rect fill="#FFFFFF" filter="url(#f11abs9nw0prbm)" height="525.5" style="stroke: #000000; stroke-width: 1.0; stroke-dasharray: 7.0,7.0;" width="705" x="103.5" y="223.5"/><text fill="#000000" font-family="sans-serif" font-size="14" font-weight="bold" lengthAdjust="spacingAndGlyphs" textLength="187" x="362.5" y="238.4951">Internal Trust Boundary</text><!--MD5=[5715e6ed352bd2bb35b7b4fbc41ae3b1]
cluster AI & Services Zone--><rect fill="#FFFFFF" filter="url(#f11abs9nw0prbm)" height="267" style="stroke: #000000; stroke-width: 1.5;" width="297" x="127.5" y="266.5"/><text fill="#000000" font-family="sans-serif" font-size="14" font-weight="bold" lengthAdjust="spacingAndGlyphs" textLength="152" x="200" y="281.4951">AI &amp; Services Zone</text><!--MD5=[5709886bb382c567d76defe5d9a6100f]
cluster Data Zone--><rect fill="#FFFFFF" filter="url(#f11abs9nw0prbm)" height="113" style="stroke: #000000; stroke-width: 1.5;" width="225" x="448.5" y="427.5"/><text fill="#000000" font-family="sans-serif" font-size="14" font-weight="bold" lengthAdjust="spacingAndGlyphs" textLength="81" x="520.5" y="442.4951">Data Zone</text><!--MD5=[f65f77fb6fda2ff01af71dd47416f8d0]
cluster Clinical Zone--><rect fill="#FFFFFF" filter="url(#f11abs9nw0prbm)" height="99" style="stroke: #000000; stroke-width: 1.5;" width="251" x="455.5" y="626"/><text fill="#000000" font-family="sans-serif" font-size="14" font-weight="bold" lengthAdjust="spacingAndGlyphs" textLength="101" x="530.5" y="640.9951">Clinical Zone</text><!--MD5=[ababbe2c331c6749e5177501ecdcd0d2]
entity AISvc--><ellipse cx="308.5" cy="317.5" fill="#FEFECE" filter="url(#f11abs9nw0prbm)" rx="12" ry="12" style="stroke: #A80036; stroke-width: 2.0;"/><line style="stroke: #A80036; stroke-width: 2.0;" x1="296.5" x2="320.5" y1="331.5" y2="331.5"/><text fill="#000000" font-family="sans-serif" font-size="14" lengthAdjust="spacingAndGlyphs" textLength="66" x="275.5" y="346.4951">AI Service</text><!--MD5=[fc6ac5ab2ff3d2290ade00ac19f75ce0]
entity Guard--><ellipse cx="198.5" cy="485.5" fill="#FEFECE" filter="url(#f11abs9nw0prbm)" rx="12" ry="12" style="stroke: #A80036; stroke-width: 2.0;"/><line style="stroke: #A80036; stroke-width: 2.0;" x1="186.5" x2="210.5" y1="499.5" y2="499.5"/><text fill="#000000" font-family="sans-serif" font-size="14" lengthAdjust="spacingAndGlyphs" textLength="109" x="144" y="514.4951">SEA-LION Guard</text><!--MD5=[762d9b1ee2eb630aa40151fb5f0602e7]
entity LLM--><ellipse cx="333.5" cy="485.5" fill="#FEFECE" filter="url(#f11abs9nw0prbm)" rx="12" ry="12" style="stroke: #A80036; stroke-width: 2.0;"/><line style="stroke: #A80036; stroke-width: 2.0;" x1="321.5" x2="345.5" y1="499.5" y2="499.5"/><text fill="#000000" font-family="sans-serif" font-size="14" lengthAdjust="spacingAndGlyphs" textLength="90" x="288.5" y="514.4951">LLM (med-r1)</text><!--MD5=[8ed0c55733eadba88b57b96e562201c3]
entity SSO--><ellipse cx="392.5" cy="317.5" fill="#FEFECE" filter="url(#f11abs9nw0prbm)" rx="12" ry="12" style="stroke: #A80036; stroke-width: 2.0;"/><line style="stroke: #A80036; stroke-width: 2.0;" x1="380.5" x2="404.5" y1="331.5" y2="331.5"/><text fill="#000000" font-family="sans-serif" font-size="14" lengthAdjust="spacingAndGlyphs" textLength="29" x="378" y="346.4951">SSO</text><!--MD5=[53b75b6e6f605f9e36928105133807e1]
entity FHIR--><path d="M464.5,472.5 C464.5,462.5 506.5,462.5 506.5,462.5 C506.5,462.5 548.5,462.5 548.5,472.5 L548.5,514.0938 C548.5,524.0938 506.5,524.0938 506.5,524.0938 C506.5,524.0938 464.5,524.0938 464.5,514.0938 L464.5,472.5 " fill="#FEFECE" filter="url(#f11abs9nw0prbm)" style="stroke: #000000; stroke-width: 1.5;"/><path d="M464.5,472.5 C464.5,482.5 506.5,482.5 506.5,482.5 C506.5,482.5 548.5,482.5 548.5,472.5 " fill="none" style="stroke: #000000; stroke-width: 1.5;"/><text fill="#000000" font-family="sans-serif" font-size="14" lengthAdjust="spacingAndGlyphs" textLength="64" x="474.5" y="499.4951">Medplum</text><text fill="#000000" font-family="sans-serif" font-size="14" lengthAdjust="spacingAndGlyphs" textLength="64" x="474.5" y="515.792">(FHIR R4)</text><!--MD5=[7b69fc0b1edf73f91d8fc62e7ed873dd]
entity SSODB--><path d="M583.5,481 C583.5,471 620.5,471 620.5,471 C620.5,471 657.5,471 657.5,481 L657.5,506.2969 C657.5,516.2969 620.5,516.2969 620.5,516.2969 C620.5,516.2969 583.5,516.2969 583.5,506.2969 L583.5,481 " fill="#FEFECE" filter="url(#f11abs9nw0prbm)" style="stroke: #000000; stroke-width: 1.5;"/><path d="M583.5,481 C583.5,491 620.5,491 620.5,491 C620.5,491 657.5,491 657.5,481 " fill="none" style="stroke: #000000; stroke-width: 1.5;"/><text fill="#000000" font-family="sans-serif" font-size="14" lengthAdjust="spacingAndGlyphs" textLength="54" x="593.5" y="507.9951">SSO DB</text><!--MD5=[c0fcde399db9bffac392b7b846ffb82a]
entity OE--><ellipse cx="506.5" cy="677" fill="#FEFECE" filter="url(#f11abs9nw0prbm)" rx="12" ry="12" style="stroke: #A80036; stroke-width: 2.0;"/><line style="stroke: #A80036; stroke-width: 2.0;" x1="494.5" x2="518.5" y1="691" y2="691"/><text fill="#000000" font-family="sans-serif" font-size="14" lengthAdjust="spacingAndGlyphs" textLength="69" x="472" y="705.9951">OpenEMR</text><!--MD5=[60ba60559b1f14da4566939cb5c97314]
entity OEDB--><path d="M576.5,672.5 C576.5,662.5 633.5,662.5 633.5,662.5 C633.5,662.5 690.5,662.5 690.5,672.5 L690.5,697.7969 C690.5,707.7969 633.5,707.7969 633.5,707.7969 C633.5,707.7969 576.5,707.7969 576.5,697.7969 L576.5,672.5 " fill="#FEFECE" filter="url(#f11abs9nw0prbm)" style="stroke: #000000; stroke-width: 1.5;"/><path d="M576.5,672.5 C576.5,682.5 633.5,682.5 633.5,682.5 C633.5,682.5 690.5,682.5 690.5,672.5 " fill="none" style="stroke: #000000; stroke-width: 1.5;"/><text fill="#000000" font-family="sans-serif" font-size="14" lengthAdjust="spacingAndGlyphs" textLength="94" x="586.5" y="699.4951">OpenEMR DB</text><!--MD5=[dd0ad59cf22ba5eb65d826bf8a4b7a3e]
entity Patient--><ellipse cx="89.5" cy="26" fill="#FEFECE" filter="url(#f11abs9nw0prbm)" rx="16" ry="16" style="stroke: #A80036; stroke-width: 1.5;"/><path d="M89.5,46 C93.5,46 96.5,46 100.5,42 C108.5,42 116.5,50 116.5,58 L116.5,62 C116.5,66 112.5,70 108.5,70 L70.5,70 C66.5,70 62.5,66 62.5,62 L62.5,58 C62.5,50 70.5,42 78.5,42 C82.5,46 85.5,46 89.5,46 " fill="#FEFECE" filter="url(#f11abs9nw0prbm)" style="stroke: #A80036; stroke-width: 1.5;"/><text fill="#000000" font-family="sans-serif" font-size="14" lengthAdjust="spacingAndGlyphs" textLength="48" x="65.5" y="84.4951">Patient</text><!--MD5=[44b45d8e2b7cfc968f8e3a696fbbc5ac]
entity Clinician--><ellipse cx="34.5" cy="471.5" fill="#FEFECE" filter="url(#f11abs9nw0prbm)" rx="16" ry="16" style="stroke: #A80036; stroke-width: 1.5;"/><path d="M34.5,491.5 C38.5,491.5 41.5,491.5 45.5,487.5 C53.5,487.5 61.5,495.5 61.5,503.5 L61.5,507.5 C61.5,511.5 57.5,515.5 53.5,515.5 L15.5,515.5 C11.5,515.5 7.5,511.5 7.5,507.5 L7.5,503.5 C7.5,495.5 15.5,487.5 23.5,487.5 C27.5,491.5 30.5,491.5 34.5,491.5 " fill="#FEFECE" filter="url(#f11abs9nw0prbm)" style="stroke: #A80036; stroke-width: 1.5;"/><text fill="#000000" font-family="sans-serif" font-size="14" lengthAdjust="spacingAndGlyphs" textLength="56" x="6.5" y="529.9951">Clinician</text><!--MD5=[97ab183161fd5d1db7fba7485cf76add]
entity Admin--><ellipse cx="392.5" cy="26" fill="#FEFECE" filter="url(#f11abs9nw0prbm)" rx="16" ry="16" style="stroke: #A80036; stroke-width: 1.5;"/><path d="M392.5,46 C396.5,46 399.5,46 403.5,42 C411.5,42 419.5,50 419.5,58 L419.5,62 C419.5,66 415.5,70 411.5,70 L373.5,70 C369.5,70 365.5,66 365.5,62 L365.5,58 C365.5,50 373.5,42 381.5,42 C385.5,46 388.5,46 392.5,46 " fill="#FEFECE" filter="url(#f11abs9nw0prbm)" style="stroke: #A80036; stroke-width: 1.5;"/><text fill="#000000" font-family="sans-serif" font-size="14" lengthAdjust="spacingAndGlyphs" textLength="43" x="371" y="84.4951">Admin</text><path d="M848.5,466 L848.5,521.3984 L1058.5,521.3984 L1058.5,476 L1048.5,466 L848.5,466 " fill="#FBFB77" filter="url(#f11abs9nw0prbm)" style="stroke: #A80036; stroke-width: 1.0;"/><path d="M1048.5,466 L1048.5,476 L1058.5,476 L1048.5,466 " fill="#FBFB77" style="stroke: #A80036; stroke-width: 1.0;"/><text fill="#000000" font-family="sans-serif" font-size="13" lengthAdjust="spacingAndGlyphs" textLength="152" x="854.5" y="483.0669">PII redaction before LLM</text><text fill="#000000" font-family="sans-serif" font-size="13" lengthAdjust="spacingAndGlyphs" textLength="189" x="854.5" y="498.1997">Hallucination check on output</text><text fill="#000000" font-family="sans-serif" font-size="13" lengthAdjust="spacingAndGlyphs" textLength="114" x="854.5" y="513.3325">Clinical harm filter</text><!--MD5=[c3b46cc3db1a3e0f47b342d03e1abaac]
link Patient to AISvc--><path d="M118.13,85.02 C162.56,140.91 247.13,247.3 286.86,297.28 " fill="none" id="Patient-&gt;AISvc" style="stroke: #A80036; stroke-width: 1.0;"/><polygon fill="#A80036" points="290.11,301.36,287.6581,291.8212,287.0058,297.4404,281.3866,296.788,290.11,301.36" style="stroke: #A80036; stroke-width: 1.0;"/><text fill="#000000" font-family="sans-serif" font-size="13" lengthAdjust="spacingAndGlyphs" textLength="75" x="202" y="130.5669">Chat, vitals,</text><text fill="#000000" font-family="sans-serif" font-size="13" lengthAdjust="spacingAndGlyphs" textLength="120" x="179.5" y="145.6997">med confirmations</text><text fill="#000000" font-family="sans-serif" font-size="13" lengthAdjust="spacingAndGlyphs" textLength="31" x="224" y="160.8325">(PHI)</text><!--MD5=[3927c0c632d9c789f4c18e3a8a990f38]
link Patient to FHIR--><path d="M73.2,87.98 C51.01,147.28 18.31,262.43 57.5,349.5 C74.56,387.4 88.84,396.24 127.5,411.5 C158.21,423.62 393.81,407.34 424.5,419.5 C445.25,427.72 464.17,443.69 478.59,458.6 " fill="none" id="Patient-&gt;FHIR" style="stroke: #A80036; stroke-width: 1.0;"/><polygon fill="#A80036" points="482.16,462.36,478.867,453.078,478.7185,458.7329,473.0636,458.5844,482.16,462.36" style="stroke: #A80036; stroke-width: 1.0;"/><text fill="#000000" font-family="sans-serif" font-size="13" lengthAdjust="spacingAndGlyphs" textLength="68" x="58.5" y="322.5669">FHIR reads</text><text fill="#000000" font-family="sans-serif" font-size="13" lengthAdjust="spacingAndGlyphs" textLength="31" x="77" y="337.6997">(PHI)</text><!--MD5=[d7ffd09cda136c8c94ffc120260dbb12]
link Clinician to OE--><path d="M63.09,512.93 C81.12,524.09 105.15,538.12 127.5,548.5 C247.42,604.18 397.11,651.57 467.05,672.51 " fill="none" id="Clinician-&gt;OE" style="stroke: #A80036; stroke-width: 1.0;"/><polygon fill="#A80036" points="471.95,673.97,464.4702,667.5628,467.1589,672.5398,462.1819,675.2286,471.95,673.97" style="stroke: #A80036; stroke-width: 1.0;"/><text fill="#000000" font-family="sans-serif" font-size="13" lengthAdjust="spacingAndGlyphs" textLength="82" x="271.5" y="576.0669">Clinical docs,</text><text fill="#000000" font-family="sans-serif" font-size="13" lengthAdjust="spacingAndGlyphs" textLength="64" x="280.5" y="591.1997">orders, Rx</text><text fill="#000000" font-family="sans-serif" font-size="13" lengthAdjust="spacingAndGlyphs" textLength="31" x="297" y="606.3325">(PHI)</text><!--MD5=[a9fdfae1717272f963cc8a9ceba459d5]
link Admin to SSO--><path d="M392.5,87.6 C392.5,143.75 392.5,246.67 392.5,296.28 " fill="none" id="Admin-&gt;SSO" style="stroke: #A80036; stroke-width: 1.0;"/><polygon fill="#A80036" points="392.5,301.49,396.5,292.49,392.5,296.49,388.5,292.49,392.5,301.49" style="stroke: #A80036; stroke-width: 1.0;"/><text fill="#000000" font-family="sans-serif" font-size="13" lengthAdjust="spacingAndGlyphs" textLength="71" x="393.5" y="138.0669">User CRUD</text><text fill="#000000" font-family="sans-serif" font-size="13" lengthAdjust="spacingAndGlyphs" textLength="24" x="417" y="153.1997">(PII)</text><!--MD5=[42ab9b8409572f1cdc964027bcbd49d6]
link AISvc to Guard--><path d="M275.27,335.3 C252.83,343.07 224.64,356.79 209.5,379.5 C192.86,404.45 192.11,439.67 194.25,464.13 " fill="none" id="AISvc-&gt;Guard" style="stroke: #A80036; stroke-width: 1.0;"/><polygon fill="#A80036" points="194.74,469.18,197.8485,459.8346,194.2552,464.2036,189.8862,460.6103,194.74,469.18" style="stroke: #A80036; stroke-width: 1.0;"/><text fill="#000000" font-family="sans-serif" font-size="13" lengthAdjust="spacingAndGlyphs" textLength="97" x="210.5" y="392.5669">All input/output</text><text fill="#000000" font-family="sans-serif" font-size="13" lengthAdjust="spacingAndGlyphs" textLength="79" x="219.5" y="407.6997">(PHI filtered)</text><!--MD5=[f5b81cd3de2f9e3f53e7a70389803b72]
link AISvc to LLM--><path d="M311.98,349.58 C316.5,379.6 324.39,432.01 329.26,464.34 " fill="none" id="AISvc-&gt;LLM" style="stroke: #A80036; stroke-width: 1.0;"/><polygon fill="#A80036" points="330.01,469.35,332.628,459.8555,329.2669,464.4055,324.7168,461.0444,330.01,469.35" style="stroke: #A80036; stroke-width: 1.0;"/><text fill="#000000" font-family="sans-serif" font-size="13" lengthAdjust="spacingAndGlyphs" textLength="54" x="339" y="392.5669">Prompts</text><text fill="#000000" font-family="sans-serif" font-size="13" lengthAdjust="spacingAndGlyphs" textLength="89" x="321.5" y="407.6997">(de-identified)</text><!--MD5=[1fba30c5ced4d268217db9f68e79aa2a]
link AISvc to FHIR--><path d="M341.65,341.54 C371.61,355.28 411.98,374.24 418.5,379.5 C445.82,401.55 469.78,433.66 485.77,458.02 " fill="none" id="AISvc-&gt;FHIR" style="stroke: #A80036; stroke-width: 1.0;"/><polygon fill="#A80036" points="488.66,462.47,487.1194,452.7424,485.9396,458.2748,480.4071,457.095,488.66,462.47" style="stroke: #A80036; stroke-width: 1.0;"/><text fill="#000000" font-family="sans-serif" font-size="13" lengthAdjust="spacingAndGlyphs" textLength="95" x="449.5" y="392.5669">FHIR read/write</text><text fill="#000000" font-family="sans-serif" font-size="13" lengthAdjust="spacingAndGlyphs" textLength="31" x="481.5" y="407.6997">(PHI)</text><!--MD5=[a809c3e95340d6a9a9940f8d314ee28b]
link AISvc to SSODB--><path d="M341.75,343.04 C347.57,345.48 353.63,347.76 359.5,349.5 C443.14,374.33 481.22,330.63 553.5,379.5 C583.92,400.06 602.57,439.45 612.23,465.85 " fill="none" id="AISvc-&gt;SSODB" style="stroke: #A80036; stroke-width: 1.0;"/><polygon fill="#A80036" points="613.93,470.62,614.6832,460.8,612.2547,465.909,607.1456,463.4805,613.93,470.62" style="stroke: #A80036; stroke-width: 1.0;"/><text fill="#000000" font-family="sans-serif" font-size="13" lengthAdjust="spacingAndGlyphs" textLength="81" x="583.5" y="392.5669">Auth queries</text><text fill="#000000" font-family="sans-serif" font-size="13" lengthAdjust="spacingAndGlyphs" textLength="24" x="612" y="407.6997">(PII)</text><!--MD5=[acbbd7d2d439c40daa5bcc4636523181]
link FHIR to OE--><path d="M506.5,529.55 C506.5,565.94 506.5,622.14 506.5,655.77 " fill="none" id="FHIR-OE" style="stroke: #A80036; stroke-width: 1.0;"/><polygon fill="#A80036" points="506.5,660.97,510.5,651.97,506.5,655.97,502.5,651.97,506.5,660.97" style="stroke: #A80036; stroke-width: 1.0;"/><polygon fill="#A80036" points="506.5,524.53,502.5,533.53,506.5,529.53,510.5,533.53,506.5,524.53" style="stroke: #A80036; stroke-width: 1.0;"/><text fill="#000000" font-family="sans-serif" font-size="13" lengthAdjust="spacingAndGlyphs" textLength="31" x="507.5" y="583.5669">Sync</text><text fill="#000000" font-family="sans-serif" font-size="13" lengthAdjust="spacingAndGlyphs" textLength="31" x="507.5" y="598.6997">(PHI)</text><!--MD5=[3b6fa1cb1fcc01f027f52a82b6401927]
link SSO to OEDB--><path d="M408.81,326.97 C463.58,328.91 639.36,338.32 673.5,379.5 C741.19,461.15 679.54,599.75 648.68,657.5 " fill="none" id="SSO-&gt;OEDB" style="stroke: #A80036; stroke-width: 1.0;"/><polygon fill="#A80036" points="646.15,662.18,653.9411,656.1552,648.5222,657.7786,646.8988,652.3596,646.15,662.18" style="stroke: #A80036; stroke-width: 1.0;"/><text fill="#000000" font-family="sans-serif" font-size="13" lengthAdjust="spacingAndGlyphs" textLength="63" x="704.5" y="490.5669">User sync</text><text fill="#000000" font-family="sans-serif" font-size="13" lengthAdjust="spacingAndGlyphs" textLength="24" x="724" y="505.6997">(PII)</text><!--MD5=[16843de1e3b81c6571f6180be97bf9cc]
link Guard to GMN28--><path d="M210.23,469.47 C224.63,443.02 251.82,401.96 289,384.5 C388.37,337.85 677.63,353.7 783,384.5 C837.12,400.32 890.4,439.15 922.62,465.92 " fill="none" id="Guard-GMN28" style="stroke: #A80036; stroke-width: 1.0; stroke-dasharray: 7.0,7.0;"/><!--MD5=[d4d4b2470251d38efe4f76c250564fce]
@startuml
skinparam actorStyle awesome

actor "Patient" as Patient
actor "Clinician" as Clinician
actor "Admin" as Admin

rectangle "External Trust Boundary" #line.dashed {

  rectangle "Internal Trust Boundary" #line.dashed {

    rectangle "AI & Services Zone" {
      entity "AI Service" as AISvc
      entity "SEA-LION Guard" as Guard
      entity "LLM (med-r1)" as LLM
      entity "SSO" as SSO
    }

    rectangle "Data Zone" {
      database "Medplum\n(FHIR R4)" as FHIR
      database "SSO DB" as SSODB
    }

    rectangle "Clinical Zone" {
      entity "OpenEMR" as OE
      database "OpenEMR DB" as OEDB
    }
  }
}

Patient - -> AISvc : Chat, vitals,\nmed confirmations\n(PHI)
Patient - -> FHIR : FHIR reads\n(PHI)
Clinician - -> OE : Clinical docs,\norders, Rx\n(PHI)
Admin - -> SSO : User CRUD\n(PII)

AISvc - -> Guard : All input/output\n(PHI filtered)
AISvc - -> LLM : Prompts\n(de-identified)
AISvc - -> FHIR : FHIR read/write\n(PHI)
AISvc - -> SSODB : Auth queries\n(PII)

FHIR <- -> OE : Sync\n(PHI)
SSO - -> OEDB : User sync\n(PII)

note right of Guard
  PII redaction before LLM
  Hallucination check on output
  Clinical harm filter
end note
@enduml

PlantUML version 1.2020.02(Sun Mar 01 10:22:07 UTC 2020)
(GPL source distribution)
Java Runtime: OpenJDK Runtime Environment
JVM: OpenJDK 64-Bit Server VM
Java Version: 17.0.18+8
Operating System: Linux
Default Encoding: UTF-8
Language: en
Country: null
--></g></svg>