<?xml version="1.0" encoding="UTF-8" standalone="no"?><svg xmlns="http://www.w3.org/2000/svg" xmlns:xlink="http://www.w3.org/1999/xlink" contentScriptType="application/ecmascript" contentStyleType="text/css" height="878px" preserveAspectRatio="none" style="width:1312px;height:878px;" version="1.1" viewBox="0 0 1312 878" width="1312px" zoomAndPan="magnify"><defs><filter height="300%" id="fgusriob2iz1e" width="300%" x="-1" y="-1"><feGaussianBlur result="blurOut" stdDeviation="2.0"/><feColorMatrix in="blurOut" result="blurOut2" type="matrix" values="0 0 0 0 0 0 0 0 0 0 0 0 0 0 0 0 0 0 .4 0"/><feOffset dx="4.0" dy="4.0" in="blurOut2" result="blurOut3"/><feBlend in="SourceGraphic" in2="blurOut3" mode="normal"/></filter></defs><g><!--MD5=[c018863fe2304e0ca952616611326b6e]
cluster Host--><polygon fill="#FFFFFF" filter="url(#fgusriob2iz1e)" points="22,34.5,32,24.5,1290,24.5,1290,856,1280,866,22,866,22,34.5" style="stroke: #000000; stroke-width: 1.5;"/><line style="stroke: #000000; stroke-width: 1.5;" x1="1280" x2="1289" y1="34.5" y2="25.5"/><line style="stroke: #000000; stroke-width: 1.5;" x1="22" x2="1280" y1="34.5" y2="34.5"/><line style="stroke: #000000; stroke-width: 1.5;" x1="1280" x2="1280" y1="34.5" y2="866"/><text fill="#000000" font-family="sans-serif" font-size="14" font-weight="bold" lengthAdjust="spacingAndGlyphs" textLength="97" x="603.5" y="50.4951">Docker Host</text><!--MD5=[d77545c74a4a4716ef303c92be33d3ba]
cluster Net--><polygon fill="#FFFFFF" filter="url(#fgusriob2iz1e)" points="46,82.5,56,72.5,978,72.5,978,757,968,767,46,767,46,82.5" style="stroke: #000000; stroke-width: 1.5;"/><line style="stroke: #000000; stroke-width: 1.5;" x1="968" x2="977" y1="82.5" y2="73.5"/><line style="stroke: #000000; stroke-width: 1.5;" x1="46" x2="968" y1="82.5" y2="82.5"/><line style="stroke: #000000; stroke-width: 1.5;" x1="968" x2="968" y1="82.5" y2="767"/><text fill="#000000" font-family="sans-serif" font-size="14" font-weight="bold" lengthAdjust="spacingAndGlyphs" textLength="237" x="389.5" y="98.4951">medseal-net (bridge network)</text><!--MD5=[cc3dbf0910bedcf5faaa3da4218c993d]
cluster Patient-Facing--><polygon fill="#FFFFFF" filter="url(#fgusriob2iz1e)" points="401,120.5,519,120.5,526,142.7969,599,142.7969,599,227.5,401,227.5,401,120.5" style="stroke: #000000; stroke-width: 1.5;"/><line style="stroke: #000000; stroke-width: 1.5;" x1="401" x2="526" y1="142.7969" y2="142.7969"/><text fill="#000000" font-family="sans-serif" font-size="14" font-weight="bold" lengthAdjust="spacingAndGlyphs" textLength="112" x="405" y="135.4951">Patient-Facing</text><!--MD5=[41338a534b786bebd84180107a52b365]
cluster AI & Services--><polygon fill="#FFFFFF" filter="url(#fgusriob2iz1e)" points="647,276.5,759,276.5,766,298.7969,954,298.7969,954,406.5,647,406.5,647,276.5" style="stroke: #000000; stroke-width: 1.5;"/><line style="stroke: #000000; stroke-width: 1.5;" x1="647" x2="766" y1="298.7969" y2="298.7969"/><text fill="#000000" font-family="sans-serif" font-size="14" font-weight="bold" lengthAdjust="spacingAndGlyphs" textLength="106" x="651" y="291.4951">AI &amp; Services</text><!--MD5=[adda18a96ece6d01a6ea00f0b13577a1]
cluster Data & Interoperability--><polygon fill="#FFFFFF" filter="url(#fgusriob2iz1e)" points="70,455.5,254,455.5,261,477.7969,427,477.7969,427,743,70,743,70,455.5" style="stroke: #000000; stroke-width: 1.5;"/><line style="stroke: #000000; stroke-width: 1.5;" x1="70" x2="261" y1="477.7969" y2="477.7969"/><text fill="#000000" font-family="sans-serif" font-size="14" font-weight="bold" lengthAdjust="spacingAndGlyphs" textLength="178" x="74" y="470.4951">Data &amp; Interoperability</text><!--MD5=[46fe6e3774f04bf0461b7e640e02a1a9]
cluster Clinical EMR--><polygon fill="#FFFFFF" filter="url(#fgusriob2iz1e)" points="451,276.5,549,276.5,556,298.7969,623,298.7969,623,585,451,585,451,276.5" style="stroke: #000000; stroke-width: 1.5;"/><line style="stroke: #000000; stroke-width: 1.5;" x1="451" x2="556" y1="298.7969" y2="298.7969"/><text fill="#000000" font-family="sans-serif" font-size="14" font-weight="bold" lengthAdjust="spacingAndGlyphs" textLength="92" x="455" y="291.4951">Clinical EMR</text><!--MD5=[acb0c8402f85a957a6e5910fb75f4576]
cluster Auth--><polygon fill="#FFFFFF" filter="url(#fgusriob2iz1e)" points="782,456,825,456,832,478.2969,954,478.2969,954,585,782,585,782,456" style="stroke: #000000; stroke-width: 1.5;"/><line style="stroke: #000000; stroke-width: 1.5;" x1="782" x2="832" y1="478.2969" y2="478.2969"/><text fill="#000000" font-family="sans-serif" font-size="14" font-weight="bold" lengthAdjust="spacingAndGlyphs" textLength="37" x="786" y="470.9951">Auth</text><!--MD5=[66bf248344f44f3bc3029a08cccbcc75]
entity MedVol--><rect fill="#FEFECE" filter="url(#fgusriob2iz1e)" height="36.2969" rx="35" ry="35" style="stroke: #000000; stroke-width: 1.5;" width="143" x="88.5" y="814"/><text fill="#000000" font-family="sans-serif" font-size="14" lengthAdjust="spacingAndGlyphs" textLength="123" x="98.5" y="836.9951">medplum-db-data</text><!--MD5=[fb9f04e4008fd625db06484c291ae616]
entity OEVol--><rect fill="#FEFECE" filter="url(#fgusriob2iz1e)" height="36.2969" rx="35" ry="35" style="stroke: #000000; stroke-width: 1.5;" width="141" x="994.5" y="669.5"/><text fill="#000000" font-family="sans-serif" font-size="14" lengthAdjust="spacingAndGlyphs" textLength="121" x="1004.5" y="692.4951">openemr-db-data</text><!--MD5=[85153e6f2a52b8e5e8ea94826be6010b]
entity SSOVol--><rect fill="#FEFECE" filter="url(#fgusriob2iz1e)" height="36.2969" rx="35" ry="35" style="stroke: #000000; stroke-width: 1.5;" width="103" x="1170.5" y="669.5"/><text fill="#000000" font-family="sans-serif" font-size="14" lengthAdjust="spacingAndGlyphs" textLength="83" x="1180.5" y="692.4951">sso-db-data</text><!--MD5=[becb4b75acec66700322c0a5ffe417c2]
entity AuditVol--><rect fill="#FEFECE" filter="url(#fgusriob2iz1e)" height="36.2969" rx="35" ry="35" style="stroke: #000000; stroke-width: 1.5;" width="89" x="993.5" y="512"/><text fill="#000000" font-family="sans-serif" font-size="14" lengthAdjust="spacingAndGlyphs" textLength="69" x="1003.5" y="534.9951">audit-data</text><!--MD5=[6e8f311b0aa23032184ffba0ef926f91]
entity App--><rect fill="#FEFECE" filter="url(#fgusriob2iz1e)" height="55.5938" style="stroke: #000000; stroke-width: 1.5;" width="167" x="416.5" y="155.5"/><polygon fill="#FEFECE" points="566.5,160.5,566.5,174.5,578.5,174.5,578.5,166.5,572.5,160.5,566.5,160.5" style="stroke: #000000; stroke-width: 1.5;"/><line style="stroke: #000000; stroke-width: 1.5;" x1="572.5" x2="572.5" y1="160.5" y2="166.5"/><line style="stroke: #000000; stroke-width: 1.5;" x1="578.5" x2="572.5" y1="166.5" y2="166.5"/><text fill="#000000" font-family="sans-serif" font-size="14" font-style="italic" lengthAdjust="spacingAndGlyphs" textLength="79" x="455.5" y="181.4951">«Expo/RN»</text><text fill="#000000" font-family="sans-serif" font-size="14" lengthAdjust="spacingAndGlyphs" textLength="137" x="426.5" y="197.792">Patient Portal Native</text><!--MD5=[ababbe2c331c6749e5177501ecdcd0d2]
entity AISvc--><rect fill="#FEFECE" filter="url(#fgusriob2iz1e)" height="78.8906" style="stroke: #A80036; stroke-width: 1.5;" width="110" x="828" y="311.5"/><rect fill="#FEFECE" height="10" style="stroke: #A80036; stroke-width: 1.5;" width="15" x="918" y="316.5"/><rect fill="#FEFECE" height="2" style="stroke: #A80036; stroke-width: 1.5;" width="4" x="916" y="318.5"/><rect fill="#FEFECE" height="2" style="stroke: #A80036; stroke-width: 1.5;" width="4" x="916" y="322.5"/><text fill="#000000" font-family="sans-serif" font-size="14" font-style="italic" lengthAdjust="spacingAndGlyphs" textLength="70" x="843" y="344.4951">«Node.js»</text><text fill="#000000" font-family="sans-serif" font-size="14" lengthAdjust="spacingAndGlyphs" textLength="65" x="845.5" y="360.792">ai-service</text><text fill="#000000" font-family="sans-serif" font-size="14" lengthAdjust="spacingAndGlyphs" textLength="41" x="845.5" y="377.0889">:4003</text><!--MD5=[64e3f0ab5274fed40e3ed55cd531e99d]
entity AIUI--><rect fill="#FEFECE" filter="url(#fgusriob2iz1e)" height="78.8906" style="stroke: #A80036; stroke-width: 1.5;" width="130" x="663" y="311.5"/><rect fill="#FEFECE" height="10" style="stroke: #A80036; stroke-width: 1.5;" width="15" x="773" y="316.5"/><rect fill="#FEFECE" height="2" style="stroke: #A80036; stroke-width: 1.5;" width="4" x="771" y="318.5"/><rect fill="#FEFECE" height="2" style="stroke: #A80036; stroke-width: 1.5;" width="4" x="771" y="322.5"/><text fill="#000000" font-family="sans-serif" font-size="14" font-style="italic" lengthAdjust="spacingAndGlyphs" textLength="90" x="678" y="344.4951">«Vite/React»</text><text fill="#000000" font-family="sans-serif" font-size="14" lengthAdjust="spacingAndGlyphs" textLength="75" x="685.5" y="360.792">ai-frontend</text><text fill="#000000" font-family="sans-serif" font-size="14" lengthAdjust="spacingAndGlyphs" textLength="41" x="685.5" y="377.0889">:3001</text><!--MD5=[585f923d6ab20c815228e62f40801d15]
entity MedSrv--><rect fill="#FEFECE" filter="url(#fgusriob2iz1e)" height="78.8906" style="stroke: #A80036; stroke-width: 1.5;" width="153" x="257.5" y="490.5"/><rect fill="#FEFECE" height="10" style="stroke: #A80036; stroke-width: 1.5;" width="15" x="390.5" y="495.5"/><rect fill="#FEFECE" height="2" style="stroke: #A80036; stroke-width: 1.5;" width="4" x="388.5" y="497.5"/><rect fill="#FEFECE" height="2" style="stroke: #A80036; stroke-width: 1.5;" width="4" x="388.5" y="501.5"/><text fill="#000000" font-family="sans-serif" font-size="14" font-style="italic" lengthAdjust="spacingAndGlyphs" textLength="46" x="306" y="523.4951">«Java»</text><text fill="#000000" font-family="sans-serif" font-size="14" lengthAdjust="spacingAndGlyphs" textLength="113" x="272.5" y="539.792">medplum-server</text><text fill="#000000" font-family="sans-serif" font-size="14" lengthAdjust="spacingAndGlyphs" textLength="41" x="272.5" y="556.0889">:8103</text><!--MD5=[a343950af2821620218d5a1c83abfcb9]
entity MedApp--><rect fill="#FEFECE" filter="url(#fgusriob2iz1e)" height="78.8906" style="stroke: #A80036; stroke-width: 1.5;" width="136" x="86" y="490.5"/><rect fill="#FEFECE" height="10" style="stroke: #A80036; stroke-width: 1.5;" width="15" x="202" y="495.5"/><rect fill="#FEFECE" height="2" style="stroke: #A80036; stroke-width: 1.5;" width="4" x="200" y="497.5"/><rect fill="#FEFECE" height="2" style="stroke: #A80036; stroke-width: 1.5;" width="4" x="200" y="501.5"/><text fill="#000000" font-family="sans-serif" font-size="14" font-style="italic" lengthAdjust="spacingAndGlyphs" textLength="58" x="120" y="523.4951">«React»</text><text fill="#000000" font-family="sans-serif" font-size="14" lengthAdjust="spacingAndGlyphs" textLength="96" x="101" y="539.792">medplum-app</text><text fill="#000000" font-family="sans-serif" font-size="14" lengthAdjust="spacingAndGlyphs" textLength="41" x="101" y="556.0889">:3000</text><!--MD5=[1c3c06623d21e6414a37f96672c073d5]
entity MedDB--><path d="M90,658.5 C90,648.5 160,648.5 160,648.5 C160,648.5 230,648.5 230,658.5 L230,716.3906 C230,726.3906 160,726.3906 160,726.3906 C160,726.3906 90,726.3906 90,716.3906 L90,658.5 " fill="#FEFECE" filter="url(#fgusriob2iz1e)" style="stroke: #000000; stroke-width: 1.5;"/><path d="M90,658.5 C90,668.5 160,668.5 160,668.5 C160,668.5 230,668.5 230,658.5 " fill="none" style="stroke: #000000; stroke-width: 1.5;"/><text fill="#000000" font-family="sans-serif" font-size="14" font-style="italic" lengthAdjust="spacingAndGlyphs" textLength="120" x="100" y="685.4951">«PostgreSQL 16»</text><text fill="#000000" font-family="sans-serif" font-size="14" lengthAdjust="spacingAndGlyphs" textLength="88" x="116" y="701.792">medplum-db</text><text fill="#000000" font-family="sans-serif" font-size="14" lengthAdjust="spacingAndGlyphs" textLength="41" x="116" y="718.0889">:5433</text><!--MD5=[f96d690baea4a0823d36c98ba0c3a2b4]
entity Redis--><rect fill="#FEFECE" filter="url(#fgusriob2iz1e)" height="78.8906" style="stroke: #A80036; stroke-width: 1.5;" width="144" x="265" y="648"/><rect fill="#FEFECE" height="10" style="stroke: #A80036; stroke-width: 1.5;" width="15" x="389" y="653"/><rect fill="#FEFECE" height="2" style="stroke: #A80036; stroke-width: 1.5;" width="4" x="387" y="655"/><rect fill="#FEFECE" height="2" style="stroke: #A80036; stroke-width: 1.5;" width="4" x="387" y="659"/><text fill="#000000" font-family="sans-serif" font-size="14" font-style="italic" lengthAdjust="spacingAndGlyphs" textLength="69" x="297.5" y="680.9951">«Redis 7»</text><text fill="#000000" font-family="sans-serif" font-size="14" lengthAdjust="spacingAndGlyphs" textLength="104" x="280" y="697.292">medplum-redis</text><text fill="#000000" font-family="sans-serif" font-size="14" lengthAdjust="spacingAndGlyphs" textLength="41" x="280" y="713.5889">:6380</text><!--MD5=[c0fcde399db9bffac392b7b846ffb82a]
entity OE--><rect fill="#FEFECE" filter="url(#fgusriob2iz1e)" height="78.8906" style="stroke: #A80036; stroke-width: 1.5;" width="127" x="473.5" y="311.5"/><rect fill="#FEFECE" height="10" style="stroke: #A80036; stroke-width: 1.5;" width="15" x="580.5" y="316.5"/><rect fill="#FEFECE" height="2" style="stroke: #A80036; stroke-width: 1.5;" width="4" x="578.5" y="318.5"/><rect fill="#FEFECE" height="2" style="stroke: #A80036; stroke-width: 1.5;" width="4" x="578.5" y="322.5"/><text fill="#000000" font-family="sans-serif" font-size="14" font-style="italic" lengthAdjust="spacingAndGlyphs" textLength="45" x="509.5" y="344.4951">«PHP»</text><text fill="#000000" font-family="sans-serif" font-size="14" lengthAdjust="spacingAndGlyphs" textLength="63" x="488.5" y="360.792">openemr</text><text fill="#000000" font-family="sans-serif" font-size="14" lengthAdjust="spacingAndGlyphs" textLength="87" x="488.5" y="377.0889">:8081/:8080</text><!--MD5=[60ba60559b1f14da4566939cb5c97314]
entity OEDB--><path d="M467.5,501 C467.5,491 537,491 537,491 C537,491 606.5,491 606.5,501 L606.5,558.8906 C606.5,568.8906 537,568.8906 537,568.8906 C537,568.8906 467.5,568.8906 467.5,558.8906 L467.5,501 " fill="#FEFECE" filter="url(#fgusriob2iz1e)" style="stroke: #000000; stroke-width: 1.5;"/><path d="M467.5,501 C467.5,511 537,511 537,511 C537,511 606.5,511 606.5,501 " fill="none" style="stroke: #000000; stroke-width: 1.5;"/><text fill="#000000" font-family="sans-serif" font-size="14" font-style="italic" lengthAdjust="spacingAndGlyphs" textLength="119" x="477.5" y="527.9951">«MariaDB 10.11»</text><text fill="#000000" font-family="sans-serif" font-size="14" lengthAdjust="spacingAndGlyphs" textLength="86" x="494" y="544.292">openemr-db</text><text fill="#000000" font-family="sans-serif" font-size="14" lengthAdjust="spacingAndGlyphs" textLength="41" x="494" y="560.5889">:3307</text><!--MD5=[7b69fc0b1edf73f91d8fc62e7ed873dd]
entity SSODB--><path d="M798,501 C798,491 868,491 868,491 C868,491 938,491 938,501 L938,558.8906 C938,568.8906 868,568.8906 868,568.8906 C868,568.8906 798,568.8906 798,558.8906 L798,501 " fill="#FEFECE" filter="url(#fgusriob2iz1e)" style="stroke: #000000; stroke-width: 1.5;"/><path d="M798,501 C798,511 868,511 868,511 C868,511 938,511 938,501 " fill="none" style="stroke: #000000; stroke-width: 1.5;"/><text fill="#000000" font-family="sans-serif" font-size="14" font-style="italic" lengthAdjust="spacingAndGlyphs" textLength="120" x="808" y="527.9951">«PostgreSQL 16»</text><text fill="#000000" font-family="sans-serif" font-size="14" lengthAdjust="spacingAndGlyphs" textLength="48" x="844" y="544.292">sso-db</text><text fill="#000000" font-family="sans-serif" font-size="14" lengthAdjust="spacingAndGlyphs" textLength="41" x="844" y="560.5889">:5434</text><!--MD5=[9ab98e416a707f8d936446b799071067]
link MedDB to MedVol--><path d="M160,726.69 C160,752.94 160,786.89 160,808.81 " fill="none" id="MedDB-&gt;MedVol" style="stroke: #A80036; stroke-width: 1.0;"/><polygon fill="#A80036" points="160,813.84,164,804.84,160,808.84,156,804.84,160,813.84" style="stroke: #A80036; stroke-width: 1.0;"/><!--MD5=[641ae652d6305a759e5ca039a8105bbf]
link OEDB to OEVol--><path d="M606.57,551.49 C709.97,581.94 902.68,638.7 1002.09,667.97 " fill="none" id="OEDB-&gt;OEVol" style="stroke: #A80036; stroke-width: 1.0;"/><polygon fill="#A80036" points="1007.04,669.43,999.5375,663.0494,1002.2439,668.0169,997.2764,670.7232,1007.04,669.43" style="stroke: #A80036; stroke-width: 1.0;"/><!--MD5=[cf2a76dbad03b5cf92ae54dff730bd05]
link SSODB to SSOVol--><path d="M907.16,569.26 C917.8,578.07 929.79,586.7 942,593 C1028.13,637.42 1063.07,611.88 1153,648 C1165.81,653.15 1179.21,660.2 1190.76,666.86 " fill="none" id="SSODB-&gt;SSOVol" style="stroke: #A80036; stroke-width: 1.0;"/><polygon fill="#A80036" points="1195.26,669.48,1189.4982,661.4924,1190.9401,666.9624,1185.4701,668.4043,1195.26,669.48" style="stroke: #A80036; stroke-width: 1.0;"/><!--MD5=[be744f71a3ce64429deeed08004cfddd]
link AISvc to AuditVol--><path d="M917.02,390.84 C948.44,426.73 993.97,478.73 1019.27,507.61 " fill="none" id="AISvc-&gt;AuditVol" style="stroke: #A80036; stroke-width: 1.0;"/><polygon fill="#A80036" points="1022.85,511.7,1019.9363,502.292,1019.5585,507.9362,1013.9143,507.5584,1022.85,511.7" style="stroke: #A80036; stroke-width: 1.0;"/><!--MD5=[f50730b69b5a4e931654f3c0ef88fa3d]
link App to AISvc--><path d="M583.8,193.98 C649.31,204.39 740.58,225.7 810,268.5 C826.26,278.52 841.01,293.25 852.92,307.43 " fill="none" id="App-&gt;AISvc" style="stroke: #A80036; stroke-width: 1.0; stroke-dasharray: 7.0,7.0;"/><polygon fill="#A80036" points="856.21,311.41,853.5628,301.9236,853.026,307.5549,847.3946,307.018,856.21,311.41" style="stroke: #A80036; stroke-width: 1.0;"/><text fill="#000000" font-family="sans-serif" font-size="13" lengthAdjust="spacingAndGlyphs" textLength="85" x="797" y="256.5669">REST / HTTPS</text><!--MD5=[fde1076c72ecb2b93e8e5158112ae162]
link App to MedSrv--><path d="M457.27,211.57 C437.44,226.18 415.18,245.86 401,268.5 C358.38,336.56 342.79,430.72 337.14,485.21 " fill="none" id="App-&gt;MedSrv" style="stroke: #A80036; stroke-width: 1.0; stroke-dasharray: 7.0,7.0;"/><polygon fill="#A80036" points="336.63,490.36,341.5081,481.8041,337.1289,485.385,333.548,481.0058,336.63,490.36" style="stroke: #A80036; stroke-width: 1.0;"/><text fill="#000000" font-family="sans-serif" font-size="13" lengthAdjust="spacingAndGlyphs" textLength="48" x="402" y="355.5669">FHIR R4</text><!--MD5=[d632d23b75a44d5ca2d93374a844bb23]
link AISvc to MedSrv--><path d="M847.14,390.61 C836.19,400.07 823.45,409.04 810,414.5 C784.21,424.98 712.45,417.91 685,422.5 C656.82,427.21 651.22,435.03 623,439.5 C585.21,445.48 487.23,435.19 451,447.5 C425.73,456.08 400.99,471.89 380.82,487.32 " fill="none" id="AISvc-&gt;MedSrv" style="stroke: #A80036; stroke-width: 1.0;"/><polygon fill="#A80036" points="376.85,490.4,386.4176,488.0631,380.8067,487.3432,381.5267,481.7323,376.85,490.4" style="stroke: #A80036; stroke-width: 1.0;"/><text fill="#000000" font-family="sans-serif" font-size="13" lengthAdjust="spacingAndGlyphs" textLength="48" x="686" y="435.5669">FHIR R4</text><!--MD5=[a809c3e95340d6a9a9940f8d314ee28b]
link AISvc to SSODB--><path d="M870.59,390.78 C867.86,400.99 865.38,412.07 864,422.5 C861.27,443.12 861.71,466.17 863.06,485.54 " fill="none" id="AISvc-&gt;SSODB" style="stroke: #A80036; stroke-width: 1.0;"/><polygon fill="#A80036" points="863.46,490.9,866.7539,481.6183,863.0743,485.9149,858.7777,482.2353,863.46,490.9" style="stroke: #A80036; stroke-width: 1.0;"/><text fill="#000000" font-family="sans-serif" font-size="13" lengthAdjust="spacingAndGlyphs" textLength="26" x="865" y="435.5669">SQL</text><!--MD5=[552a8a83dc94131b9f3f4b8006cc69fa]
link AISvc to OEDB--><path d="M843.9,390.55 C833.49,399.33 821.84,407.98 810,414.5 C799.41,420.33 795.35,418.32 784,422.5 C725.1,444.19 659.95,472.46 611.36,494.43 " fill="none" id="AISvc-&gt;OEDB" style="stroke: #A80036; stroke-width: 1.0;"/><polygon fill="#A80036" points="606.71,496.53,616.5587,496.4729,611.2672,494.4728,613.2672,489.1813,606.71,496.53" style="stroke: #A80036; stroke-width: 1.0;"/><text fill="#000000" font-family="sans-serif" font-size="13" lengthAdjust="spacingAndGlyphs" textLength="69" x="785" y="435.5669">SQL (sync)</text><!--MD5=[9dbb8ab3b25530616401bdfec93fe51d]
link MedSrv to MedDB--><path d="M290.54,569.84 C264.93,592.73 232.52,621.69 206.41,645.02 " fill="none" id="MedSrv-&gt;MedDB" style="stroke: #A80036; stroke-width: 1.0;"/><polygon fill="#A80036" points="202.6,648.43,211.9777,645.4203,206.3299,645.1002,206.6501,639.4524,202.6,648.43" style="stroke: #A80036; stroke-width: 1.0;"/><text fill="#000000" font-family="sans-serif" font-size="13" lengthAdjust="spacingAndGlyphs" textLength="26" x="254" y="614.0669">SQL</text><!--MD5=[9095656629584bf207b3941f2af665ee]
link MedSrv to Redis--><path d="M309.98,569.85 C303.51,584.7 299.23,601.92 303,618 C304.96,626.35 308.09,634.85 311.69,642.88 " fill="none" id="MedSrv-&gt;Redis" style="stroke: #A80036; stroke-width: 1.0;"/><polygon fill="#A80036" points="313.98,647.83,313.8344,637.9822,311.882,643.2915,306.5728,641.339,313.98,647.83" style="stroke: #A80036; stroke-width: 1.0;"/><text fill="#000000" font-family="sans-serif" font-size="13" lengthAdjust="spacingAndGlyphs" textLength="40" x="304" y="614.0669">Cache</text><!--MD5=[7c7a9777891b4702fca8e39bf7e7b588]
link OE to OEDB--><path d="M537,390.84 C537,418.82 537,456.58 537,485.55 " fill="none" id="OE-&gt;OEDB" style="stroke: #A80036; stroke-width: 1.0;"/><polygon fill="#A80036" points="537,490.86,541,481.86,537,485.86,533,481.86,537,490.86" style="stroke: #A80036; stroke-width: 1.0;"/><text fill="#000000" font-family="sans-serif" font-size="13" lengthAdjust="spacingAndGlyphs" textLength="26" x="538" y="435.5669">SQL</text><!--MD5=[748a45775c23623f16e20c4bbf975b74]
@startuml
skinparam componentStyle uml2

node "Docker Host" as Host {

  node "medseal-net (bridge network)" as Net {

    package "Patient-Facing" {
      artifact "Patient Portal Native" as App <<Expo/RN>>
    }

    package "AI & Services" {
      component "ai-service\n:4003" as AISvc <<Node.js>>
      component "ai-frontend\n:3001" as AIUI <<Vite/React>>
    }

    package "Data & Interoperability" {
      component "medplum-server\n:8103" as MedSrv <<Java>>
      component "medplum-app\n:3000" as MedApp <<React>>
      database "medplum-db\n:5433" as MedDB <<PostgreSQL 16>>
      component "medplum-redis\n:6380" as Redis <<Redis 7>>
    }

    package "Clinical EMR" {
      component "openemr\n:8081/:8080" as OE <<PHP>>
      database "openemr-db\n:3307" as OEDB <<MariaDB 10.11>>
    }

    package "Auth" {
      database "sso-db\n:5434" as SSODB <<PostgreSQL 16>>
    }
  }

  storage "medplum-db-data" as MedVol
  storage "openemr-db-data" as OEVol
  storage "sso-db-data" as SSOVol
  storage "audit-data" as AuditVol
}

MedDB - -> MedVol
OEDB - -> OEVol
SSODB - -> SSOVol
AISvc - -> AuditVol

App ..> AISvc : REST / HTTPS
App ..> MedSrv : FHIR R4
AISvc - -> MedSrv : FHIR R4
AISvc - -> SSODB : SQL
AISvc - -> OEDB : SQL (sync)
MedSrv - -> MedDB : SQL
MedSrv - -> Redis : Cache
OE - -> OEDB : SQL
@enduml

PlantUML version 1.2020.02(Sun Mar 01 10:22:07 UTC 2020)
(GPL source distribution)
Java Runtime: OpenJDK Runtime Environment
JVM: OpenJDK 64-Bit Server VM
Java Version: 17.0.18+8
Operating System: Linux
Default Encoding: UTF-8
Language: en
Country: null
--></g></svg>