<?xml version="1.0" encoding="UTF-8" standalone="no"?><svg xmlns="http://www.w3.org/2000/svg" xmlns:xlink="http://www.w3.org/1999/xlink" contentScriptType="application/ecmascript" contentStyleType="text/css" height="1190px" preserveAspectRatio="none" style="width:1540px;height:1190px;" version="1.1" viewBox="0 0 1540 1190" width="1540px" zoomAndPan="magnify"><defs><filter height="300%" id="f1a2fzctollgvq" width="300%" x="-1" y="-1"><feGaussianBlur result="blurOut" stdDeviation="2.0"/><feColorMatrix in="blurOut" result="blurOut2" type="matrix" values="0 0 0 0 0 0 0 0 0 0 0 0 0 0 0 0 0 0 .4 0"/><feOffset dx="4.0" dy="4.0" in="blurOut2" result="blurOut3"/><feBlend in="SourceGraphic" in2="blurOut3" mode="normal"/></filter></defs><g><!--MD5=[132cbbe899a39923e12b52844b929da4]
cluster Untrusted Zone\n(Public Internet)--><rect fill="#FFDDDD" filter="url(#f1a2fzctollgvq)" height="165" style="stroke: #000000; stroke-width: 1.5;" width="292" x="408" y="24"/><text fill="#000000" font-family="sans-serif" font-size="14" font-weight="bold" lengthAdjust="spacingAndGlyphs" textLength="125" x="491.5" y="38.9951">Untrusted Zone</text><text fill="#000000" font-family="sans-serif" font-size="14" font-weight="bold" lengthAdjust="spacingAndGlyphs" textLength="127" x="490.5" y="55.292">(Public Internet)</text><!--MD5=[1974b214dd03a395651a47c2a82fae62]
cluster DMZ\n(Reverse Proxy / TLS Termination)--><rect fill="#FFEEDD" filter="url(#f1a2fzctollgvq)" height="130" style="stroke: #000000; stroke-width: 1.5;" width="286" x="405" y="238"/><text fill="#000000" font-family="sans-serif" font-size="14" font-weight="bold" lengthAdjust="spacingAndGlyphs" textLength="35" x="530.5" y="252.9951">DMZ</text><text fill="#000000" font-family="sans-serif" font-size="14" font-weight="bold" lengthAdjust="spacingAndGlyphs" textLength="270" x="413" y="269.292">(Reverse Proxy / TLS Termination)</text><!--MD5=[dc07541f310724f8b7b9d4eaf0118981]
cluster Application Zone\n(Docker: medseal-net)--><rect fill="#DDFFDD" filter="url(#f1a2fzctollgvq)" height="645" style="stroke: #000000; stroke-width: 1.5;" width="940" x="22" y="401"/><text fill="#000000" font-family="sans-serif" font-size="14" font-weight="bold" lengthAdjust="spacingAndGlyphs" textLength="133" x="425.5" y="415.9951">Application Zone</text><text fill="#000000" font-family="sans-serif" font-size="14" font-weight="bold" lengthAdjust="spacingAndGlyphs" textLength="177" x="403.5" y="432.292">(Docker: medseal-net)</text><!--MD5=[cdfd548b3455e70392372b1f27091970]
cluster Services--><rect fill="#DDFFDD" filter="url(#f1a2fzctollgvq)" height="114" style="stroke: #000000; stroke-width: 1.5;" width="774" x="164" y="460"/><text fill="#000000" font-family="sans-serif" font-size="14" font-weight="bold" lengthAdjust="spacingAndGlyphs" textLength="68" x="517" y="474.9951">Services</text><!--MD5=[50bf4c142de0218afd2d753ecb73baba]
cluster AI Safety--><rect fill="#DDFFDD" filter="url(#f1a2fzctollgvq)" height="97" style="stroke: #000000; stroke-width: 1.5;" width="346" x="46" y="623"/><text fill="#000000" font-family="sans-serif" font-size="14" font-weight="bold" lengthAdjust="spacingAndGlyphs" textLength="70" x="184" y="637.9951">AI Safety</text><!--MD5=[27449f4f6d245db65daf4ff0b4d52ada]
cluster Data Zone\n<<Confidential / Restricted>>--><rect fill="#EEEEFF" filter="url(#f1a2fzctollgvq)" height="253" style="stroke: #000000; stroke-width: 1.5;" width="569" x="362" y="769"/><text fill="#000000" font-family="sans-serif" font-size="14" font-weight="bold" lengthAdjust="spacingAndGlyphs" textLength="81" x="606" y="783.9951">Data Zone</text><text fill="#000000" font-family="sans-serif" font-size="14" font-weight="bold" lengthAdjust="spacingAndGlyphs" textLength="238" x="527.5" y="800.292">&lt;&lt;Confidential / Restricted&gt;&gt;</text><!--MD5=[2426c953935df1f99e62dfc89b15095f]
entity PatientActor--><ellipse cx="452" cy="84.5" fill="#FEFECE" filter="url(#f1a2fzctollgvq)" rx="8" ry="8" style="stroke: #A80036; stroke-width: 1.5;"/><path d="M452,92.5 L452,119.5 M439,100.5 L465,100.5 M452,119.5 L439,134.5 M452,119.5 L465,134.5 " fill="none" filter="url(#f1a2fzctollgvq)" style="stroke: #A80036; stroke-width: 1.5;"/><text fill="#000000" font-family="sans-serif" font-size="14" lengthAdjust="spacingAndGlyphs" textLength="48" x="424.5" y="152.9951">Patient</text><text fill="#000000" font-family="sans-serif" font-size="14" lengthAdjust="spacingAndGlyphs" textLength="55" x="424.5" y="169.292">(Mobile)</text><!--MD5=[a8a90db418e95d8656b4342fc3eb763d]
entity ClinicianActor--><ellipse cx="548" cy="84.5" fill="#FEFECE" filter="url(#f1a2fzctollgvq)" rx="8" ry="8" style="stroke: #A80036; stroke-width: 1.5;"/><path d="M548,92.5 L548,119.5 M535,100.5 L561,100.5 M548,119.5 L535,134.5 M548,119.5 L561,134.5 " fill="none" filter="url(#f1a2fzctollgvq)" style="stroke: #A80036; stroke-width: 1.5;"/><text fill="#000000" font-family="sans-serif" font-size="14" lengthAdjust="spacingAndGlyphs" textLength="56" x="514.5" y="152.9951">Clinician</text><text fill="#000000" font-family="sans-serif" font-size="14" lengthAdjust="spacingAndGlyphs" textLength="67" x="514.5" y="169.292">(Browser)</text><!--MD5=[9c151bacf2b13845f5fa5a8ba465d8ac]
entity AdminActor--><ellipse cx="650" cy="84.5" fill="#FEFECE" filter="url(#f1a2fzctollgvq)" rx="8" ry="8" style="stroke: #A80036; stroke-width: 1.5;"/><path d="M650,92.5 L650,119.5 M637,100.5 L663,100.5 M650,119.5 L637,134.5 M650,119.5 L663,134.5 " fill="none" filter="url(#f1a2fzctollgvq)" style="stroke: #A80036; stroke-width: 1.5;"/><text fill="#000000" font-family="sans-serif" font-size="14" lengthAdjust="spacingAndGlyphs" textLength="43" x="616.5" y="152.9951">Admin</text><text fill="#000000" font-family="sans-serif" font-size="14" lengthAdjust="spacingAndGlyphs" textLength="67" x="616.5" y="169.292">(Browser)</text><!--MD5=[49cbbb1648246ecd0e2d56eda0c19f08]
entity Gateway--><rect fill="#FEFECE" filter="url(#f1a2fzctollgvq)" height="62.5938" style="stroke: #A80036; stroke-width: 1.5;" width="149" x="473.5" y="289"/><rect fill="#FEFECE" height="10" style="stroke: #A80036; stroke-width: 1.5;" width="15" x="602.5" y="294"/><rect fill="#FEFECE" height="2" style="stroke: #A80036; stroke-width: 1.5;" width="4" x="600.5" y="296"/><rect fill="#FEFECE" height="2" style="stroke: #A80036; stroke-width: 1.5;" width="4" x="600.5" y="300"/><text fill="#000000" font-family="sans-serif" font-size="14" lengthAdjust="spacingAndGlyphs" textLength="109" x="488.5" y="321.9951">HTTPS Gateway</text><text fill="#000000" font-family="sans-serif" font-size="14" lengthAdjust="spacingAndGlyphs" textLength="103" x="488.5" y="338.292">(nginx / Caddy)</text><!--MD5=[8998bbf8554a7c00bcf160ed057ee0fa]
entity Portal--><rect fill="#FEFECE" filter="url(#f1a2fzctollgvq)" height="62.5938" style="stroke: #A80036; stroke-width: 1.5;" width="131" x="180.5" y="495"/><rect fill="#FEFECE" height="10" style="stroke: #A80036; stroke-width: 1.5;" width="15" x="291.5" y="500"/><rect fill="#FEFECE" height="2" style="stroke: #A80036; stroke-width: 1.5;" width="4" x="289.5" y="502"/><rect fill="#FEFECE" height="2" style="stroke: #A80036; stroke-width: 1.5;" width="4" x="289.5" y="506"/><text fill="#000000" font-family="sans-serif" font-size="14" lengthAdjust="spacingAndGlyphs" textLength="91" x="195.5" y="527.9951">Patient Portal</text><text fill="#000000" font-family="sans-serif" font-size="14" lengthAdjust="spacingAndGlyphs" textLength="42" x="195.5" y="544.292">Native</text><!--MD5=[ababbe2c331c6749e5177501ecdcd0d2]
entity AISvc--><rect fill="#FEFECE" filter="url(#f1a2fzctollgvq)" height="62.5938" style="stroke: #A80036; stroke-width: 1.5;" width="106" x="347" y="495"/><rect fill="#FEFECE" height="10" style="stroke: #A80036; stroke-width: 1.5;" width="15" x="433" y="500"/><rect fill="#FEFECE" height="2" style="stroke: #A80036; stroke-width: 1.5;" width="4" x="431" y="502"/><rect fill="#FEFECE" height="2" style="stroke: #A80036; stroke-width: 1.5;" width="4" x="431" y="506"/><text fill="#000000" font-family="sans-serif" font-size="14" lengthAdjust="spacingAndGlyphs" textLength="66" x="362" y="527.9951">AI Service</text><text fill="#000000" font-family="sans-serif" font-size="14" lengthAdjust="spacingAndGlyphs" textLength="41" x="362" y="544.292">:4003</text><!--MD5=[64e3f0ab5274fed40e3ed55cd531e99d]
entity AIUI--><rect fill="#FEFECE" filter="url(#f1a2fzctollgvq)" height="62.5938" style="stroke: #A80036; stroke-width: 1.5;" width="119" x="488.5" y="495"/><rect fill="#FEFECE" height="10" style="stroke: #A80036; stroke-width: 1.5;" width="15" x="587.5" y="500"/><rect fill="#FEFECE" height="2" style="stroke: #A80036; stroke-width: 1.5;" width="4" x="585.5" y="502"/><rect fill="#FEFECE" height="2" style="stroke: #A80036; stroke-width: 1.5;" width="4" x="585.5" y="506"/><text fill="#000000" font-family="sans-serif" font-size="14" lengthAdjust="spacingAndGlyphs" textLength="79" x="503.5" y="527.9951">AI Frontend</text><text fill="#000000" font-family="sans-serif" font-size="14" lengthAdjust="spacingAndGlyphs" textLength="41" x="503.5" y="544.292">:3001</text><!--MD5=[c0fcde399db9bffac392b7b846ffb82a]
entity OE--><rect fill="#FEFECE" filter="url(#f1a2fzctollgvq)" height="62.5938" style="stroke: #A80036; stroke-width: 1.5;" width="109" x="642.5" y="495"/><rect fill="#FEFECE" height="10" style="stroke: #A80036; stroke-width: 1.5;" width="15" x="731.5" y="500"/><rect fill="#FEFECE" height="2" style="stroke: #A80036; stroke-width: 1.5;" width="4" x="729.5" y="502"/><rect fill="#FEFECE" height="2" style="stroke: #A80036; stroke-width: 1.5;" width="4" x="729.5" y="506"/><text fill="#000000" font-family="sans-serif" font-size="14" lengthAdjust="spacingAndGlyphs" textLength="69" x="657.5" y="527.9951">OpenEMR</text><text fill="#000000" font-family="sans-serif" font-size="14" lengthAdjust="spacingAndGlyphs" textLength="41" x="657.5" y="544.292">:8081</text><!--MD5=[a343950af2821620218d5a1c83abfcb9]
entity MedApp--><rect fill="#FEFECE" filter="url(#f1a2fzctollgvq)" height="62.5938" style="stroke: #A80036; stroke-width: 1.5;" width="135" x="786.5" y="495"/><rect fill="#FEFECE" height="10" style="stroke: #A80036; stroke-width: 1.5;" width="15" x="901.5" y="500"/><rect fill="#FEFECE" height="2" style="stroke: #A80036; stroke-width: 1.5;" width="4" x="899.5" y="502"/><rect fill="#FEFECE" height="2" style="stroke: #A80036; stroke-width: 1.5;" width="4" x="899.5" y="506"/><text fill="#000000" font-family="sans-serif" font-size="14" lengthAdjust="spacingAndGlyphs" textLength="95" x="801.5" y="527.9951">Medplum App</text><text fill="#000000" font-family="sans-serif" font-size="14" lengthAdjust="spacingAndGlyphs" textLength="41" x="801.5" y="544.292">:3000</text><!--MD5=[fc6ac5ab2ff3d2290ade00ac19f75ce0]
entity Guard--><rect fill="#FEFECE" filter="url(#f1a2fzctollgvq)" height="46.2969" style="stroke: #A80036; stroke-width: 1.5;" width="149" x="227.5" y="658"/><rect fill="#FEFECE" height="10" style="stroke: #A80036; stroke-width: 1.5;" width="15" x="356.5" y="663"/><rect fill="#FEFECE" height="2" style="stroke: #A80036; stroke-width: 1.5;" width="4" x="354.5" y="665"/><rect fill="#FEFECE" height="2" style="stroke: #A80036; stroke-width: 1.5;" width="4" x="354.5" y="669"/><text fill="#000000" font-family="sans-serif" font-size="14" lengthAdjust="spacingAndGlyphs" textLength="109" x="242.5" y="690.9951">SEA-LION Guard</text><!--MD5=[762d9b1ee2eb630aa40151fb5f0602e7]
entity LLM--><rect fill="#FEFECE" filter="url(#f1a2fzctollgvq)" height="46.2969" style="stroke: #A80036; stroke-width: 1.5;" width="130" x="62" y="658"/><rect fill="#FEFECE" height="10" style="stroke: #A80036; stroke-width: 1.5;" width="15" x="172" y="663"/><rect fill="#FEFECE" height="2" style="stroke: #A80036; stroke-width: 1.5;" width="4" x="170" y="665"/><rect fill="#FEFECE" height="2" style="stroke: #A80036; stroke-width: 1.5;" width="4" x="170" y="669"/><text fill="#000000" font-family="sans-serif" font-size="14" lengthAdjust="spacingAndGlyphs" textLength="90" x="77" y="690.9951">LLM (med-r1)</text><!--MD5=[585f923d6ab20c815228e62f40801d15]
entity MedSrv--><rect fill="#FEFECE" filter="url(#f1a2fzctollgvq)" height="62.5938" style="stroke: #A80036; stroke-width: 1.5;" width="152" x="378" y="820"/><rect fill="#FEFECE" height="10" style="stroke: #A80036; stroke-width: 1.5;" width="15" x="510" y="825"/><rect fill="#FEFECE" height="2" style="stroke: #A80036; stroke-width: 1.5;" width="4" x="508" y="827"/><rect fill="#FEFECE" height="2" style="stroke: #A80036; stroke-width: 1.5;" width="4" x="508" y="831"/><text fill="#000000" font-family="sans-serif" font-size="14" lengthAdjust="spacingAndGlyphs" textLength="112" x="393" y="852.9951">Medplum Server</text><text fill="#000000" font-family="sans-serif" font-size="14" lengthAdjust="spacingAndGlyphs" textLength="41" x="393" y="869.292">:8103</text><!--MD5=[1c3c06623d21e6414a37f96672c073d5]
entity MedDB--><path d="M399.5,954 C399.5,944 454,944 454,944 C454,944 508.5,944 508.5,954 L508.5,995.5938 C508.5,1005.5938 454,1005.5938 454,1005.5938 C454,1005.5938 399.5,1005.5938 399.5,995.5938 L399.5,954 " fill="#FEFECE" filter="url(#f1a2fzctollgvq)" style="stroke: #000000; stroke-width: 1.5;"/><path d="M399.5,954 C399.5,964 454,964 454,964 C454,964 508.5,964 508.5,954 " fill="none" style="stroke: #000000; stroke-width: 1.5;"/><text fill="#000000" font-family="sans-serif" font-size="14" lengthAdjust="spacingAndGlyphs" textLength="89" x="409.5" y="980.9951">Medplum DB</text><text fill="#000000" font-family="sans-serif" font-size="14" lengthAdjust="spacingAndGlyphs" textLength="40" x="409.5" y="997.292">«PHI»</text><!--MD5=[60ba60559b1f14da4566939cb5c97314]
entity OEDB--><path d="M801,830.5 C801,820.5 858,820.5 858,820.5 C858,820.5 915,820.5 915,830.5 L915,872.0938 C915,882.0938 858,882.0938 858,882.0938 C858,882.0938 801,882.0938 801,872.0938 L801,830.5 " fill="#FEFECE" filter="url(#f1a2fzctollgvq)" style="stroke: #000000; stroke-width: 1.5;"/><path d="M801,830.5 C801,840.5 858,840.5 858,840.5 C858,840.5 915,840.5 915,830.5 " fill="none" style="stroke: #000000; stroke-width: 1.5;"/><text fill="#000000" font-family="sans-serif" font-size="14" lengthAdjust="spacingAndGlyphs" textLength="94" x="811" y="857.4951">OpenEMR DB</text><text fill="#000000" font-family="sans-serif" font-size="14" lengthAdjust="spacingAndGlyphs" textLength="40" x="811" y="873.792">«PHI»</text><!--MD5=[7b69fc0b1edf73f91d8fc62e7ed873dd]
entity SSODB--><path d="M692,830.5 C692,820.5 729,820.5 729,820.5 C729,820.5 766,820.5 766,830.5 L766,872.0938 C766,882.0938 729,882.0938 729,882.0938 C729,882.0938 692,882.0938 692,872.0938 L692,830.5 " fill="#FEFECE" filter="url(#f1a2fzctollgvq)" style="stroke: #000000; stroke-width: 1.5;"/><path d="M692,830.5 C692,840.5 729,840.5 729,840.5 C729,840.5 766,840.5 766,830.5 " fill="none" style="stroke: #000000; stroke-width: 1.5;"/><text fill="#000000" font-family="sans-serif" font-size="14" lengthAdjust="spacingAndGlyphs" textLength="54" x="702" y="857.4951">SSO DB</text><text fill="#000000" font-family="sans-serif" font-size="14" lengthAdjust="spacingAndGlyphs" textLength="33" x="702" y="873.792">«PII»</text><!--MD5=[bf64172b235ce5d70b9cc98f70fee030]
entity AuditDB--><path d="M565,830.5 C565,820.5 611,820.5 611,820.5 C611,820.5 657,820.5 657,830.5 L657,872.0938 C657,882.0938 611,882.0938 611,882.0938 C611,882.0938 565,882.0938 565,872.0938 L565,830.5 " fill="#FEFECE" filter="url(#f1a2fzctollgvq)" style="stroke: #000000; stroke-width: 1.5;"/><path d="M565,830.5 C565,840.5 611,840.5 611,840.5 C611,840.5 657,840.5 657,830.5 " fill="none" style="stroke: #000000; stroke-width: 1.5;"/><text fill="#000000" font-family="sans-serif" font-size="14" lengthAdjust="spacingAndGlyphs" textLength="72" x="575" y="857.4951">Audit Logs</text><text fill="#000000" font-family="sans-serif" font-size="14" lengthAdjust="spacingAndGlyphs" textLength="69" x="575" y="873.792">«Internal»</text><path d="M322,1093 L322,1178.6641 A0,0 0 0 0 322,1178.6641 L586,1178.6641 A0,0 0 0 0 586,1178.6641 L586,1103 L576,1093 L458,1093 L454,1006.28 L450,1093 L322,1093 A0,0 0 0 0 322,1093 " fill="#FBFB77" filter="url(#f1a2fzctollgvq)" style="stroke: #A80036; stroke-width: 1.0;"/><path d="M576,1093 L576,1103 L586,1103 L576,1093 " fill="#FBFB77" style="stroke: #A80036; stroke-width: 1.0;"/><text fill="#000000" font-family="sans-serif" font-size="13" font-weight="bold" lengthAdjust="spacingAndGlyphs" textLength="236" x="328" y="1110.0669">Data Classification: RESTRICTED</text><text fill="#000000" font-family="sans-serif" font-size="13" lengthAdjust="spacingAndGlyphs" textLength="225" x="328" y="1125.1997">Contains all PHI (Patient, Condition,</text><text fill="#000000" font-family="sans-serif" font-size="13" lengthAdjust="spacingAndGlyphs" textLength="243" x="328" y="1140.3325">Observation, MedicationRequest, etc.)</text><text fill="#000000" font-family="sans-serif" font-size="13" lengthAdjust="spacingAndGlyphs" textLength="217" x="328" y="1155.4653">Encrypted at rest. Access via FHIR</text><text fill="#000000" font-family="sans-serif" font-size="13" lengthAdjust="spacingAndGlyphs" textLength="79" x="328" y="1170.5981">scopes only.</text><path d="M1253.5,947.5 L1253.5,1002.8984 L1528.5,1002.8984 L1528.5,957.5 L1518.5,947.5 L1253.5,947.5 " fill="#FBFB77" filter="url(#f1a2fzctollgvq)" style="stroke: #A80036; stroke-width: 1.0;"/><path d="M1518.5,947.5 L1518.5,957.5 L1528.5,957.5 L1518.5,947.5 " fill="#FBFB77" style="stroke: #A80036; stroke-width: 1.0;"/><text fill="#000000" font-family="sans-serif" font-size="13" font-weight="bold" lengthAdjust="spacingAndGlyphs" textLength="254" x="1259.5" y="964.5669">Data Classification: CONFIDENTIAL</text><text fill="#000000" font-family="sans-serif" font-size="13" lengthAdjust="spacingAndGlyphs" textLength="209" x="1259.5" y="979.6997">Contains PII (usernames, emails,</text><text fill="#000000" font-family="sans-serif" font-size="13" lengthAdjust="spacingAndGlyphs" textLength="237" x="1259.5" y="994.8325">password hashes). Encrypted at rest.</text><path d="M978,947.5 L978,1002.8984 L1218,1002.8984 L1218,957.5 L1208,947.5 L978,947.5 " fill="#FBFB77" filter="url(#f1a2fzctollgvq)" style="stroke: #A80036; stroke-width: 1.0;"/><path d="M1208,947.5 L1208,957.5 L1218,957.5 L1208,947.5 " fill="#FBFB77" style="stroke: #A80036; stroke-width: 1.0;"/><text fill="#000000" font-family="sans-serif" font-size="13" font-weight="bold" lengthAdjust="spacingAndGlyphs" textLength="219" x="984" y="964.5669">Data Classification: INTERNAL</text><text fill="#000000" font-family="sans-serif" font-size="13" lengthAdjust="spacingAndGlyphs" textLength="137" x="984" y="979.6997">Immutable audit trail.</text><text fill="#000000" font-family="sans-serif" font-size="13" lengthAdjust="spacingAndGlyphs" textLength="176" x="984" y="994.8325">Retained 7 years per policy.</text><!--MD5=[324dfc50653e007cff0826d8931830e2]
link PatientActor to Gateway--><path d="M430.29,173.28 C426.12,189.29 424.96,206.88 432,222 C444.18,248.15 467.22,269.79 489.57,285.99 " fill="none" id="PatientActor-&gt;Gateway" style="stroke: #A80036; stroke-width: 1.0;"/><polygon fill="#A80036" points="493.73,288.95,488.7061,280.4789,489.6527,286.056,484.0756,287.0026,493.73,288.95" style="stroke: #A80036; stroke-width: 1.0;"/><text fill="#000000" font-family="sans-serif" font-size="13" lengthAdjust="spacingAndGlyphs" textLength="102" x="433" y="218.0669">HTTPS (TLS 1.3)</text><!--MD5=[9588d9698cf956823ca5a0f5f2e0d6c6]
link ClinicianActor to Gateway--><path d="M545.9,173.22 C545.52,183.69 545.19,194.72 545,205 C544.5,231.43 545.33,261.29 546.24,283.89 " fill="none" id="ClinicianActor-&gt;Gateway" style="stroke: #A80036; stroke-width: 1.0;"/><polygon fill="#A80036" points="546.45,288.89,550.0871,279.7373,546.2502,283.894,542.0935,280.0571,546.45,288.89" style="stroke: #A80036; stroke-width: 1.0;"/><text fill="#000000" font-family="sans-serif" font-size="13" lengthAdjust="spacingAndGlyphs" textLength="102" x="546" y="218.0669">HTTPS (TLS 1.3)</text><!--MD5=[4226ccfc810576c906b6d21b755d077b]
link AdminActor to Gateway--><path d="M659.59,173.44 C660.68,189.47 659.53,207.02 653,222 C641.91,247.44 620.54,269.22 599.96,285.71 " fill="none" id="AdminActor-&gt;Gateway" style="stroke: #A80036; stroke-width: 1.0;"/><polygon fill="#A80036" points="595.86,288.93,605.4128,286.5332,599.7975,285.8485,600.4823,280.2332,595.86,288.93" style="stroke: #A80036; stroke-width: 1.0;"/><text fill="#000000" font-family="sans-serif" font-size="13" lengthAdjust="spacingAndGlyphs" textLength="102" x="658" y="218.0669">HTTPS (TLS 1.3)</text><!--MD5=[d8f08dee5652249b23df3f862701292d]
link Gateway to Portal--><path d="M473.31,332.85 C428.15,342.71 371.49,360.71 330,393 C297.36,418.41 273.88,460.3 260.18,490.18 " fill="none" id="Gateway-&gt;Portal" style="stroke: #A80036; stroke-width: 1.0;"/><polygon fill="#A80036" points="258.07,494.87,265.4187,488.3128,260.1272,490.3128,258.1271,485.0213,258.07,494.87" style="stroke: #A80036; stroke-width: 1.0;"/><!--MD5=[0c8a5551ab328951881e1bb8fa21a545]
link Gateway to OE--><path d="M585.68,352.04 C599.05,363.96 613.59,378.3 625,393 C648.52,423.3 668.7,462.32 681.67,490.16 " fill="none" id="Gateway-&gt;OE" style="stroke: #A80036; stroke-width: 1.0;"/><polygon fill="#A80036" points="683.84,494.87,683.7082,485.022,681.7483,490.3285,676.4418,488.3687,683.84,494.87" style="stroke: #A80036; stroke-width: 1.0;"/><!--MD5=[7cf9f2ede43d45bb3f57933bf116fe36]
link Gateway to AIUI--><path d="M548,352.04 C548,388.85 548,450.6 548,489.63 " fill="none" id="Gateway-&gt;AIUI" style="stroke: #A80036; stroke-width: 1.0;"/><polygon fill="#A80036" points="548,494.75,552,485.75,548,489.75,544,485.75,548,494.75" style="stroke: #A80036; stroke-width: 1.0;"/><!--MD5=[352ae4304053f7014b6cbb1ecd210687]
link Gateway to MedApp--><path d="M622.61,332.48 C668.53,342.24 726.52,360.26 769,393 C801.88,418.34 825.66,460.25 839.57,490.15 " fill="none" id="Gateway-&gt;MedApp" style="stroke: #A80036; stroke-width: 1.0;"/><polygon fill="#A80036" points="841.72,494.84,841.6117,484.9917,839.6392,490.2936,834.3374,488.321,841.72,494.84" style="stroke: #A80036; stroke-width: 1.0;"/><!--MD5=[44939894825a0d29dc5db0fb3578531b]
link Gateway to AISvc--><path d="M509.88,352.35 C496.62,364.21 482.26,378.41 471,393 C447.64,423.28 427.76,462.3 415.03,490.14 " fill="none" id="Gateway-&gt;AISvc" style="stroke: #A80036; stroke-width: 1.0;"/><polygon fill="#A80036" points="412.9,494.86,420.2487,488.3028,414.9572,490.3028,412.9571,485.0113,412.9,494.86" style="stroke: #A80036; stroke-width: 1.0;"/><!--MD5=[42ab9b8409572f1cdc964027bcbd49d6]
link AISvc to Guard--><path d="M380.17,558.36 C362.3,586.17 336.29,626.64 319.26,653.14 " fill="none" id="AISvc-&gt;Guard" style="stroke: #A80036; stroke-width: 1.0;"/><polygon fill="#A80036" points="316.4,657.6,324.6445,652.2122,319.1139,653.4006,317.9255,647.87,316.4,657.6" style="stroke: #A80036; stroke-width: 1.0;"/><text fill="#000000" font-family="sans-serif" font-size="13" lengthAdjust="spacingAndGlyphs" textLength="36" x="360" y="603.0669">All I/O</text><!--MD5=[f5b81cd3de2f9e3f53e7a70389803b72]
link AISvc to LLM--><path d="M368.54,558.04 C357.01,567.41 343.26,576.65 329,582 C302.52,591.93 227.22,577.21 202,590 C174.91,603.75 153.9,632.09 141.09,653.32 " fill="none" id="AISvc-&gt;LLM" style="stroke: #A80036; stroke-width: 1.0;"/><polygon fill="#A80036" points="138.49,657.73,146.5059,652.0076,141.0288,653.4225,139.6139,647.9455,138.49,657.73" style="stroke: #A80036; stroke-width: 1.0;"/><text fill="#000000" font-family="sans-serif" font-size="13" lengthAdjust="spacingAndGlyphs" textLength="139" x="203" y="603.0669">De-identified prompts</text><!--MD5=[d632d23b75a44d5ca2d93374a844bb23]
link AISvc to MedSrv--><path d="M405.13,558.18 C415.14,618.07 437.24,750.27 447.95,814.32 " fill="none" id="AISvc-&gt;MedSrv" style="stroke: #A80036; stroke-width: 1.0;"/><polygon fill="#A80036" points="448.83,819.55,451.2825,810.0114,448.0011,814.6192,443.3933,811.3377,448.83,819.55" style="stroke: #A80036; stroke-width: 1.0;"/><text fill="#000000" font-family="sans-serif" font-size="13" lengthAdjust="spacingAndGlyphs" textLength="48" x="434" y="685.5669">FHIR R4</text><!--MD5=[a809c3e95340d6a9a9940f8d314ee28b]
link AISvc to SSODB--><path d="M432.79,558.25 C444.11,567.28 457.4,576.26 471,582 C565.34,621.8 627.22,541.99 699,615 C751.24,668.14 744.66,763.67 736.28,815.22 " fill="none" id="AISvc-&gt;SSODB" style="stroke: #A80036; stroke-width: 1.0;"/><polygon fill="#A80036" points="735.41,820.38,740.8699,812.1831,736.2528,815.4515,732.9843,810.8345,735.41,820.38" style="stroke: #A80036; stroke-width: 1.0;"/><text fill="#000000" font-family="sans-serif" font-size="13" lengthAdjust="spacingAndGlyphs" textLength="30" x="742" y="685.5669">Auth</text><!--MD5=[b90538bdaec82a99e9884f467c886641]
link AISvc to AuditDB--><path d="M440.65,558.16 C486.05,594.94 557.64,661.08 592,736 C603.4,760.86 608.05,791.55 609.91,814.89 " fill="none" id="AISvc-&gt;AuditDB" style="stroke: #A80036; stroke-width: 1.0;"/><polygon fill="#A80036" points="610.28,820.06,613.6003,810.7877,609.9085,815.0738,605.6224,811.382,610.28,820.06" style="stroke: #A80036; stroke-width: 1.0;"/><text fill="#000000" font-family="sans-serif" font-size="13" lengthAdjust="spacingAndGlyphs" textLength="103" x="587" y="685.5669">AuditEvent write</text><!--MD5=[149e36629ac671828341a078b867a8c4]
link Guard to AuditDB--><path d="M347.7,704.07 C365.12,712.09 385.28,720.92 404,728 C439.24,741.33 448.17,745.04 485,753 C512.59,758.96 523.82,746.44 548,761 C569.01,773.65 584.85,796.29 595.39,815.64 " fill="none" id="Guard-&gt;AuditDB" style="stroke: #A80036; stroke-width: 1.0; stroke-dasharray: 7.0,7.0;"/><polygon fill="#A80036" points="597.96,820.48,597.2739,810.6551,595.616,816.0635,590.2075,814.4055,597.96,820.48" style="stroke: #A80036; stroke-width: 1.0;"/><text fill="#000000" font-family="sans-serif" font-size="13" lengthAdjust="spacingAndGlyphs" textLength="101" x="486" y="749.0669">PII redaction log</text><!--MD5=[9dbb8ab3b25530616401bdfec93fe51d]
link MedSrv to MedDB--><path d="M454,883.16 C454,899.98 454,920.91 454,938.45 " fill="none" id="MedSrv-&gt;MedDB" style="stroke: #A80036; stroke-width: 1.0;"/><polygon fill="#A80036" points="454,943.77,458,934.77,454,938.77,450,934.77,454,943.77" style="stroke: #A80036; stroke-width: 1.0;"/><!--MD5=[7c7a9777891b4702fca8e39bf7e7b588]
link OE to OEDB--><path d="M729.42,558.07 C741.06,567.32 754.83,576.48 769,582 C831.8,606.46 878.99,559.35 917,615 C959.46,677.17 913.95,767.22 882.56,815.99 " fill="none" id="OE-&gt;OEDB" style="stroke: #A80036; stroke-width: 1.0;"/><polygon fill="#A80036" points="879.76,820.29,888.0257,814.9349,882.4905,816.1014,881.3239,810.5661,879.76,820.29" style="stroke: #A80036; stroke-width: 1.0;"/><!--MD5=[552a8a83dc94131b9f3f4b8006cc69fa]
link AISvc to OEDB--><path d="M431.45,558.06 C442.99,567.43 456.74,576.67 471,582 C498.32,592.22 572.98,587.09 602,590 C681.93,598.01 719.4,563.45 781,615 C812.06,640.99 839.09,756.18 851.21,815.27 " fill="none" id="AISvc-&gt;OEDB" style="stroke: #A80036; stroke-width: 1.0;"/><polygon fill="#A80036" points="852.27,820.46,854.3896,810.8419,851.2702,815.561,846.5511,812.4416,852.27,820.46" style="stroke: #A80036; stroke-width: 1.0;"/><text fill="#000000" font-family="sans-serif" font-size="13" lengthAdjust="spacingAndGlyphs" textLength="63" x="831" y="685.5669">User sync</text><!--MD5=[17b19c64ac1fb08539cc201adc20ee01]
link SSODB to GMN45--><path d="M766.02,875.44 C771.88,878.35 777.99,881.01 784,883 C976.4,946.81 1035.97,911.17 1236,944 C1242.63,945.09 1249.4,946.24 1256.24,947.44 " fill="none" id="SSODB-GMN45" style="stroke: #A80036; stroke-width: 1.0; stroke-dasharray: 7.0,7.0;"/><!--MD5=[69abdcfb6931d3b0d9a425cf46fd0c79]
link AuditDB to GMN48--><path d="M657.31,876.11 C663.18,878.64 669.17,881.02 675,883 C730.06,901.76 873.32,931.12 977.91,951.4 " fill="none" id="AuditDB-GMN48" style="stroke: #A80036; stroke-width: 1.0; stroke-dasharray: 7.0,7.0;"/><!--MD5=[e8e20c3c58ad47a4bc33bca023dc0395]
@startuml
skinparam componentStyle uml2

rectangle "Untrusted Zone\n(Public Internet)" #FDD {
  actor "Patient\n(Mobile)" as PatientActor
  actor "Clinician\n(Browser)" as ClinicianActor
  actor "Admin\n(Browser)" as AdminActor
}

rectangle "DMZ\n(Reverse Proxy / TLS Termination)" #FED {
  component "HTTPS Gateway\n(nginx / Caddy)" as Gateway
}

rectangle "Application Zone\n(Docker: medseal-net)" #DFD {

  rectangle "Services" {
    component "Patient Portal\nNative" as Portal
    component "AI Service\n:4003" as AISvc
    component "AI Frontend\n:3001" as AIUI
    component "OpenEMR\n:8081" as OE
    component "Medplum App\n:3000" as MedApp
  }

  rectangle "AI Safety" {
    component "SEA-LION Guard" as Guard
    component "LLM (med-r1)" as LLM
  }

  rectangle "Data Zone\n<<Confidential / Restricted>>" #EEF {
    component "Medplum Server\n:8103" as MedSrv
    database "Medplum DB\n<<PHI>>" as MedDB
    database "OpenEMR DB\n<<PHI>>" as OEDB
    database "SSO DB\n<<PII>>" as SSODB
    database "Audit Logs\n<<Internal>>" as AuditDB
  }
}

PatientActor - -> Gateway : HTTPS (TLS 1.3)
ClinicianActor - -> Gateway : HTTPS (TLS 1.3)
AdminActor - -> Gateway : HTTPS (TLS 1.3)

Gateway - -> Portal
Gateway - -> OE
Gateway - -> AIUI
Gateway - -> MedApp
Gateway - -> AISvc

AISvc - -> Guard : All I/O
AISvc - -> LLM : De-identified prompts
AISvc - -> MedSrv : FHIR R4
AISvc - -> SSODB : Auth
AISvc - -> AuditDB : AuditEvent write

Guard ..> AuditDB : PII redaction log

MedSrv - -> MedDB
OE - -> OEDB
AISvc - -> OEDB : User sync

note bottom of MedDB
  **Data Classification: RESTRICTED**
  Contains all PHI (Patient, Condition,
  Observation, MedicationRequest, etc.)
  Encrypted at rest. Access via FHIR
  scopes only.
end note

note bottom of SSODB
  **Data Classification: CONFIDENTIAL**
  Contains PII (usernames, emails,
  password hashes). Encrypted at rest.
end note

note bottom of AuditDB
  **Data Classification: INTERNAL**
  Immutable audit trail.
  Retained 7 years per policy.
end note
@enduml

PlantUML version 1.2020.02(Sun Mar 01 10:22:07 UTC 2020)
(GPL source distribution)
Java Runtime: OpenJDK Runtime Environment
JVM: OpenJDK 64-Bit Server VM
Java Version: 17.0.18+8
Operating System: Linux
Default Encoding: UTF-8
Language: en
Country: null
--></g></svg>