<?xml version="1.0" encoding="UTF-8" standalone="no"?><svg xmlns="http://www.w3.org/2000/svg" xmlns:xlink="http://www.w3.org/1999/xlink" contentScriptType="application/ecmascript" contentStyleType="text/css" height="826px" preserveAspectRatio="none" style="width:1137px;height:826px;" version="1.1" viewBox="0 0 1137 826" width="1137px" zoomAndPan="magnify"><defs><filter height="300%" id="fnbyv804xm5n1" width="300%" x="-1" y="-1"><feGaussianBlur result="blurOut" stdDeviation="2.0"/><feColorMatrix in="blurOut" result="blurOut2" type="matrix" values="0 0 0 0 0 0 0 0 0 0 0 0 0 0 0 0 0 0 .4 0"/><feOffset dx="4.0" dy="4.0" in="blurOut2" result="blurOut3"/><feBlend in="SourceGraphic" in2="blurOut3" mode="normal"/></filter></defs><g><line style="stroke: #A80036; stroke-width: 1.0; stroke-dasharray: 5.0,5.0;" x1="35" x2="35" y1="86.2969" y2="736.6172"/><line style="stroke: #A80036; stroke-width: 1.0; stroke-dasharray: 5.0,5.0;" x1="167.5" x2="167.5" y1="86.2969" y2="736.6172"/><line style="stroke: #A80036; stroke-width: 1.0; stroke-dasharray: 5.0,5.0;" x1="348" x2="348" y1="86.2969" y2="736.6172"/><line style="stroke: #A80036; stroke-width: 1.0; stroke-dasharray: 5.0,5.0;" x1="521.5" x2="521.5" y1="86.2969" y2="736.6172"/><line style="stroke: #A80036; stroke-width: 1.0; stroke-dasharray: 5.0,5.0;" x1="647.5" x2="647.5" y1="86.2969" y2="736.6172"/><line style="stroke: #A80036; stroke-width: 1.0; stroke-dasharray: 5.0,5.0;" x1="767.5" x2="767.5" y1="86.2969" y2="736.6172"/><line style="stroke: #A80036; stroke-width: 1.0; stroke-dasharray: 5.0,5.0;" x1="932.5" x2="932.5" y1="86.2969" y2="736.6172"/><line style="stroke: #A80036; stroke-width: 1.0; stroke-dasharray: 5.0,5.0;" x1="1016.5" x2="1016.5" y1="86.2969" y2="736.6172"/><line style="stroke: #A80036; stroke-width: 1.0; stroke-dasharray: 5.0,5.0;" x1="1096.5" x2="1096.5" y1="86.2969" y2="736.6172"/><text fill="#000000" font-family="sans-serif" font-size="14" lengthAdjust="spacingAndGlyphs" textLength="48" x="8" y="82.9951">Patient</text><ellipse cx="35" cy="13" fill="#FEFECE" filter="url(#fnbyv804xm5n1)" rx="8" ry="8" style="stroke: #A80036; stroke-width: 2.0;"/><path d="M35,21 L35,48 M22,29 L48,29 M35,48 L22,63 M35,48 L48,63 " fill="none" filter="url(#fnbyv804xm5n1)" style="stroke: #A80036; stroke-width: 2.0;"/><text fill="#000000" font-family="sans-serif" font-size="14" lengthAdjust="spacingAndGlyphs" textLength="48" x="8" y="748.6123">Patient</text><ellipse cx="35" cy="761.9141" fill="#FEFECE" filter="url(#fnbyv804xm5n1)" rx="8" ry="8" style="stroke: #A80036; stroke-width: 2.0;"/><path d="M35,769.9141 L35,796.9141 M22,777.9141 L48,777.9141 M35,796.9141 L22,811.9141 M35,796.9141 L48,811.9141 " fill="none" filter="url(#fnbyv804xm5n1)" style="stroke: #A80036; stroke-width: 2.0;"/><rect fill="#FEFECE" filter="url(#fnbyv804xm5n1)" height="30.2969" style="stroke: #A80036; stroke-width: 1.5;" width="105" x="113.5" y="51"/><text fill="#000000" font-family="sans-serif" font-size="14" lengthAdjust="spacingAndGlyphs" textLength="91" x="120.5" y="70.9951">Patient Portal</text><rect fill="#FEFECE" filter="url(#fnbyv804xm5n1)" height="30.2969" style="stroke: #A80036; stroke-width: 1.5;" width="105" x="113.5" y="735.6172"/><text fill="#000000" font-family="sans-serif" font-size="14" lengthAdjust="spacingAndGlyphs" textLength="91" x="120.5" y="755.6123">Patient Portal</text><rect fill="#FEFECE" filter="url(#fnbyv804xm5n1)" height="46.5938" style="stroke: #A80036; stroke-width: 1.5;" width="80" x="306" y="34.7031"/><text fill="#000000" font-family="sans-serif" font-size="14" lengthAdjust="spacingAndGlyphs" textLength="66" x="313" y="54.6982">AI Service</text><text fill="#000000" font-family="sans-serif" font-size="14" lengthAdjust="spacingAndGlyphs" textLength="41" x="325.5" y="70.9951">:4003</text><rect fill="#FEFECE" filter="url(#fnbyv804xm5n1)" height="46.5938" style="stroke: #A80036; stroke-width: 1.5;" width="80" x="306" y="735.6172"/><text fill="#000000" font-family="sans-serif" font-size="14" lengthAdjust="spacingAndGlyphs" textLength="66" x="313" y="755.6123">AI Service</text><text fill="#000000" font-family="sans-serif" font-size="14" lengthAdjust="spacingAndGlyphs" textLength="41" x="325.5" y="771.9092">:4003</text><rect fill="#FEFECE" filter="url(#fnbyv804xm5n1)" height="30.2969" style="stroke: #A80036; stroke-width: 1.5;" width="123" x="458.5" y="51"/><text fill="#000000" font-family="sans-serif" font-size="14" lengthAdjust="spacingAndGlyphs" textLength="109" x="465.5" y="70.9951">SEA-LION Guard</text><rect fill="#FEFECE" filter="url(#fnbyv804xm5n1)" height="30.2969" style="stroke: #A80036; stroke-width: 1.5;" width="123" x="458.5" y="735.6172"/><text fill="#000000" font-family="sans-serif" font-size="14" lengthAdjust="spacingAndGlyphs" textLength="109" x="465.5" y="755.6123">SEA-LION Guard</text><rect fill="#FEFECE" filter="url(#fnbyv804xm5n1)" height="30.2969" style="stroke: #A80036; stroke-width: 1.5;" width="101" x="595.5" y="51"/><text fill="#000000" font-family="sans-serif" font-size="14" lengthAdjust="spacingAndGlyphs" textLength="87" x="602.5" y="70.9951">Orchestrator</text><rect fill="#FEFECE" filter="url(#fnbyv804xm5n1)" height="30.2969" style="stroke: #A80036; stroke-width: 1.5;" width="101" x="595.5" y="735.6172"/><text fill="#000000" font-family="sans-serif" font-size="14" lengthAdjust="spacingAndGlyphs" textLength="87" x="602.5" y="755.6123">Orchestrator</text><rect fill="#FEFECE" filter="url(#fnbyv804xm5n1)" height="30.2969" style="stroke: #A80036; stroke-width: 1.5;" width="110" x="710.5" y="51"/><text fill="#000000" font-family="sans-serif" font-size="14" lengthAdjust="spacingAndGlyphs" textLength="96" x="717.5" y="70.9951">Agent (A1-A6)</text><rect fill="#FEFECE" filter="url(#fnbyv804xm5n1)" height="30.2969" style="stroke: #A80036; stroke-width: 1.5;" width="110" x="710.5" y="735.6172"/><text fill="#000000" font-family="sans-serif" font-size="14" lengthAdjust="spacingAndGlyphs" textLength="96" x="717.5" y="755.6123">Agent (A1-A6)</text><rect fill="#FEFECE" filter="url(#fnbyv804xm5n1)" height="46.5938" style="stroke: #A80036; stroke-width: 1.5;" width="74" x="893.5" y="34.7031"/><text fill="#000000" font-family="sans-serif" font-size="14" lengthAdjust="spacingAndGlyphs" textLength="26" x="917.5" y="54.6982">LLM</text><text fill="#000000" font-family="sans-serif" font-size="14" lengthAdjust="spacingAndGlyphs" textLength="60" x="900.5" y="70.9951">(med-r1)</text><rect fill="#FEFECE" filter="url(#fnbyv804xm5n1)" height="46.5938" style="stroke: #A80036; stroke-width: 1.5;" width="74" x="893.5" y="735.6172"/><text fill="#000000" font-family="sans-serif" font-size="14" lengthAdjust="spacingAndGlyphs" textLength="26" x="917.5" y="755.6123">LLM</text><text fill="#000000" font-family="sans-serif" font-size="14" lengthAdjust="spacingAndGlyphs" textLength="60" x="900.5" y="771.9092">(med-r1)</text><text fill="#000000" font-family="sans-serif" font-size="14" lengthAdjust="spacingAndGlyphs" textLength="64" x="981.5" y="66.6982">Medplum</text><text fill="#000000" font-family="sans-serif" font-size="14" lengthAdjust="spacingAndGlyphs" textLength="64" x="981.5" y="82.9951">(FHIR R4)</text><path d="M998.5,17.7031 C998.5,7.7031 1016.5,7.7031 1016.5,7.7031 C1016.5,7.7031 1034.5,7.7031 1034.5,17.7031 L1034.5,43.7031 C1034.5,53.7031 1016.5,53.7031 1016.5,53.7031 C1016.5,53.7031 998.5,53.7031 998.5,43.7031 L998.5,17.7031 " fill="#FEFECE" filter="url(#fnbyv804xm5n1)" style="stroke: #000000; stroke-width: 1.5;"/><path d="M998.5,17.7031 C998.5,27.7031 1016.5,27.7031 1016.5,27.7031 C1016.5,27.7031 1034.5,27.7031 1034.5,17.7031 " fill="none" style="stroke: #000000; stroke-width: 1.5;"/><text fill="#000000" font-family="sans-serif" font-size="14" lengthAdjust="spacingAndGlyphs" textLength="64" x="981.5" y="748.6123">Medplum</text><text fill="#000000" font-family="sans-serif" font-size="14" lengthAdjust="spacingAndGlyphs" textLength="64" x="981.5" y="764.9092">(FHIR R4)</text><path d="M998.5,778.2109 C998.5,768.2109 1016.5,768.2109 1016.5,768.2109 C1016.5,768.2109 1034.5,768.2109 1034.5,778.2109 L1034.5,804.2109 C1034.5,814.2109 1016.5,814.2109 1016.5,814.2109 C1016.5,814.2109 998.5,814.2109 998.5,804.2109 L998.5,778.2109 " fill="#FEFECE" filter="url(#fnbyv804xm5n1)" style="stroke: #000000; stroke-width: 1.5;"/><path d="M998.5,778.2109 C998.5,788.2109 1016.5,788.2109 1016.5,788.2109 C1016.5,788.2109 1034.5,788.2109 1034.5,778.2109 " fill="none" style="stroke: #000000; stroke-width: 1.5;"/><text fill="#000000" font-family="sans-serif" font-size="14" lengthAdjust="spacingAndGlyphs" textLength="64" x="1061.5" y="82.9951">Audit Log</text><path d="M1078.5,34 C1078.5,24 1096.5,24 1096.5,24 C1096.5,24 1114.5,24 1114.5,34 L1114.5,60 C1114.5,70 1096.5,70 1096.5,70 C1096.5,70 1078.5,70 1078.5,60 L1078.5,34 " fill="#FEFECE" filter="url(#fnbyv804xm5n1)" style="stroke: #000000; stroke-width: 1.5;"/><path d="M1078.5,34 C1078.5,44 1096.5,44 1096.5,44 C1096.5,44 1114.5,44 1114.5,34 " fill="none" style="stroke: #000000; stroke-width: 1.5;"/><text fill="#000000" font-family="sans-serif" font-size="14" lengthAdjust="spacingAndGlyphs" textLength="64" x="1061.5" y="748.6123">Audit Log</text><path d="M1078.5,761.9141 C1078.5,751.9141 1096.5,751.9141 1096.5,751.9141 C1096.5,751.9141 1114.5,751.9141 1114.5,761.9141 L1114.5,787.9141 C1114.5,797.9141 1096.5,797.9141 1096.5,797.9141 C1096.5,797.9141 1078.5,797.9141 1078.5,787.9141 L1078.5,761.9141 " fill="#FEFECE" filter="url(#fnbyv804xm5n1)" style="stroke: #000000; stroke-width: 1.5;"/><path d="M1078.5,761.9141 C1078.5,771.9141 1096.5,771.9141 1096.5,771.9141 C1096.5,771.9141 1114.5,771.9141 1114.5,761.9141 " fill="none" style="stroke: #000000; stroke-width: 1.5;"/><polygon fill="#A80036" points="156,113.4297,166,117.4297,156,121.4297,160,117.4297" style="stroke: #A80036; stroke-width: 1.0;"/><line style="stroke: #A80036; stroke-width: 1.0;" x1="35" x2="162" y1="117.4297" y2="117.4297"/><text fill="#000000" font-family="sans-serif" font-size="13" lengthAdjust="spacingAndGlyphs" textLength="103" x="42" y="112.3638">Sends message</text><polygon fill="#A80036" points="336,157.6953,346,161.6953,336,165.6953,340,161.6953" style="stroke: #A80036; stroke-width: 1.0;"/><line style="stroke: #A80036; stroke-width: 1.0;" x1="168" x2="342" y1="161.6953" y2="161.6953"/><text fill="#000000" font-family="sans-serif" font-size="13" lengthAdjust="spacingAndGlyphs" textLength="70" x="175" y="141.4966">POST /chat</text><text fill="#000000" font-family="sans-serif" font-size="13" lengthAdjust="spacingAndGlyphs" textLength="139" x="175" y="156.6294">{patientId, message}</text><polygon fill="#A80036" points="1084.5,201.9609,1094.5,205.9609,1084.5,209.9609,1088.5,205.9609" style="stroke: #A80036; stroke-width: 1.0;"/><line style="stroke: #A80036; stroke-width: 1.0;" x1="348" x2="1090.5" y1="205.9609" y2="205.9609"/><text fill="#000000" font-family="sans-serif" font-size="13" lengthAdjust="spacingAndGlyphs" textLength="76" x="355" y="185.7622">Log request</text><text fill="#000000" font-family="sans-serif" font-size="13" lengthAdjust="spacingAndGlyphs" textLength="79" x="355" y="200.895">(AuditEvent)</text><polygon fill="#A80036" points="510,231.0938,520,235.0938,510,239.0938,514,235.0938" style="stroke: #A80036; stroke-width: 1.0;"/><line style="stroke: #A80036; stroke-width: 1.0;" x1="348" x2="516" y1="235.0938" y2="235.0938"/><text fill="#000000" font-family="sans-serif" font-size="13" lengthAdjust="spacingAndGlyphs" textLength="138" x="355" y="230.0278">checkInput(message)</text><polygon fill="#A80036" points="359,260.2266,349,264.2266,359,268.2266,355,264.2266" style="stroke: #A80036; stroke-width: 1.0;"/><line style="stroke: #A80036; stroke-width: 1.0; stroke-dasharray: 2.0,2.0;" x1="353" x2="521" y1="264.2266" y2="264.2266"/><text fill="#000000" font-family="sans-serif" font-size="13" lengthAdjust="spacingAndGlyphs" textLength="35" x="365" y="259.1606">PASS</text><polygon fill="#A80036" points="636,289.3594,646,293.3594,636,297.3594,640,293.3594" style="stroke: #A80036; stroke-width: 1.0;"/><line style="stroke: #A80036; stroke-width: 1.0;" x1="348" x2="642" y1="293.3594" y2="293.3594"/><text fill="#000000" font-family="sans-serif" font-size="13" lengthAdjust="spacingAndGlyphs" textLength="115" x="355" y="288.2935">classify(message)</text><polygon fill="#A80036" points="359,318.4922,349,322.4922,359,326.4922,355,322.4922" style="stroke: #A80036; stroke-width: 1.0;"/><line style="stroke: #A80036; stroke-width: 1.0; stroke-dasharray: 2.0,2.0;" x1="353" x2="647" y1="322.4922" y2="322.4922"/><text fill="#000000" font-family="sans-serif" font-size="13" lengthAdjust="spacingAndGlyphs" textLength="159" x="365" y="317.4263">intent = "medical_query"</text><polygon fill="#A80036" points="755.5,347.625,765.5,351.625,755.5,355.625,759.5,351.625" style="stroke: #A80036; stroke-width: 1.0;"/><line style="stroke: #A80036; stroke-width: 1.0;" x1="348" x2="761.5" y1="351.625" y2="351.625"/><text fill="#000000" font-family="sans-serif" font-size="13" lengthAdjust="spacingAndGlyphs" textLength="92" x="355" y="346.5591">process(input)</text><polygon fill="#A80036" points="1004.5,407.0234,1014.5,411.0234,1004.5,415.0234,1008.5,411.0234" style="stroke: #A80036; stroke-width: 1.0;"/><line style="stroke: #A80036; stroke-width: 1.0;" x1="767.5" x2="1010.5" y1="411.0234" y2="411.0234"/><text fill="#000000" font-family="sans-serif" font-size="13" lengthAdjust="spacingAndGlyphs" textLength="113" x="774.5" y="375.6919">Search Condition,</text><text fill="#000000" font-family="sans-serif" font-size="13" lengthAdjust="spacingAndGlyphs" textLength="125" x="774.5" y="390.8247">MedicationRequest,</text><text fill="#000000" font-family="sans-serif" font-size="13" lengthAdjust="spacingAndGlyphs" textLength="77" x="774.5" y="405.9575">Observation</text><polygon fill="#A80036" points="778.5,436.1563,768.5,440.1563,778.5,444.1563,774.5,440.1563" style="stroke: #A80036; stroke-width: 1.0;"/><line style="stroke: #A80036; stroke-width: 1.0; stroke-dasharray: 2.0,2.0;" x1="772.5" x2="1015.5" y1="440.1563" y2="440.1563"/><text fill="#000000" font-family="sans-serif" font-size="13" lengthAdjust="spacingAndGlyphs" textLength="76" x="784.5" y="435.0903">FHIR Bundle</text><polygon fill="#A80036" points="920.5,480.4219,930.5,484.4219,920.5,488.4219,924.5,484.4219" style="stroke: #A80036; stroke-width: 1.0;"/><line style="stroke: #A80036; stroke-width: 1.0;" x1="767.5" x2="926.5" y1="484.4219" y2="484.4219"/><text fill="#000000" font-family="sans-serif" font-size="13" lengthAdjust="spacingAndGlyphs" textLength="47" x="774.5" y="464.2231">Prompt</text><text fill="#000000" font-family="sans-serif" font-size="13" lengthAdjust="spacingAndGlyphs" textLength="141" x="774.5" y="479.356">(de-identified context)</text><polygon fill="#A80036" points="778.5,509.5547,768.5,513.5547,778.5,517.5547,774.5,513.5547" style="stroke: #A80036; stroke-width: 1.0;"/><line style="stroke: #A80036; stroke-width: 1.0; stroke-dasharray: 2.0,2.0;" x1="772.5" x2="931.5" y1="513.5547" y2="513.5547"/><text fill="#000000" font-family="sans-serif" font-size="13" lengthAdjust="spacingAndGlyphs" textLength="88" x="784.5" y="508.4888">Raw response</text><polygon fill="#A80036" points="359,538.6875,349,542.6875,359,546.6875,355,542.6875" style="stroke: #A80036; stroke-width: 1.0;"/><line style="stroke: #A80036; stroke-width: 1.0; stroke-dasharray: 2.0,2.0;" x1="353" x2="766.5" y1="542.6875" y2="542.6875"/><text fill="#000000" font-family="sans-serif" font-size="13" lengthAdjust="spacingAndGlyphs" textLength="82" x="365" y="537.6216">AgentOutput</text><polygon fill="#A80036" points="510,567.8203,520,571.8203,510,575.8203,514,571.8203" style="stroke: #A80036; stroke-width: 1.0;"/><line style="stroke: #A80036; stroke-width: 1.0;" x1="348" x2="516" y1="571.8203" y2="571.8203"/><text fill="#000000" font-family="sans-serif" font-size="13" lengthAdjust="spacingAndGlyphs" textLength="150" x="355" y="566.7544">checkOutput(response)</text><polygon fill="#A80036" points="359,596.9531,349,600.9531,359,604.9531,355,600.9531" style="stroke: #A80036; stroke-width: 1.0;"/><line style="stroke: #A80036; stroke-width: 1.0; stroke-dasharray: 2.0,2.0;" x1="353" x2="521" y1="600.9531" y2="600.9531"/><text fill="#000000" font-family="sans-serif" font-size="13" lengthAdjust="spacingAndGlyphs" textLength="35" x="365" y="595.8872">PASS</text><polygon fill="#A80036" points="1084.5,641.2188,1094.5,645.2188,1084.5,649.2188,1088.5,645.2188" style="stroke: #A80036; stroke-width: 1.0;"/><line style="stroke: #A80036; stroke-width: 1.0;" x1="348" x2="1090.5" y1="645.2188" y2="645.2188"/><text fill="#000000" font-family="sans-serif" font-size="13" lengthAdjust="spacingAndGlyphs" textLength="86" x="355" y="625.02">Log response</text><text fill="#000000" font-family="sans-serif" font-size="13" lengthAdjust="spacingAndGlyphs" textLength="79" x="355" y="640.1528">(AuditEvent)</text><polygon fill="#A80036" points="179,685.4844,169,689.4844,179,693.4844,175,689.4844" style="stroke: #A80036; stroke-width: 1.0;"/><line style="stroke: #A80036; stroke-width: 1.0; stroke-dasharray: 2.0,2.0;" x1="173" x2="347" y1="689.4844" y2="689.4844"/><text fill="#000000" font-family="sans-serif" font-size="13" lengthAdjust="spacingAndGlyphs" textLength="156" x="185" y="669.2856">200 {reply, agentsUsed,</text><text fill="#000000" font-family="sans-serif" font-size="13" lengthAdjust="spacingAndGlyphs" textLength="99" x="185" y="684.4185">guardDecision}</text><polygon fill="#A80036" points="46,714.6172,36,718.6172,46,722.6172,42,718.6172" style="stroke: #A80036; stroke-width: 1.0;"/><line style="stroke: #A80036; stroke-width: 1.0; stroke-dasharray: 2.0,2.0;" x1="40" x2="167" y1="718.6172" y2="718.6172"/><text fill="#000000" font-family="sans-serif" font-size="13" lengthAdjust="spacingAndGlyphs" textLength="109" x="52" y="713.5513">Display response</text><!--MD5=[6bbb307ae8c9ea98f47143136afbd16f]
@startuml
actor "Patient" as Patient
participant "Patient Portal" as App
participant "AI Service\n:4003" as API
participant "SEA-LION Guard" as Guard
participant "Orchestrator" as Orch
participant "Agent (A1-A6)" as Agent
participant "LLM\n(med-r1)" as LLM
database "Medplum\n(FHIR R4)" as FHIR
database "Audit Log" as Audit

Patient -> App : Sends message
App -> API : POST /chat\n{patientId, message}

API -> Audit : Log request\n(AuditEvent)

API -> Guard : checkInput(message)
Guard - -> API : PASS

API -> Orch : classify(message)
Orch - -> API : intent = "medical_query"

API -> Agent : process(input)
Agent -> FHIR : Search Condition,\nMedicationRequest,\nObservation
FHIR - -> Agent : FHIR Bundle
Agent -> LLM : Prompt\n(de-identified context)
LLM - -> Agent : Raw response

Agent - -> API : AgentOutput

API -> Guard : checkOutput(response)
Guard - -> API : PASS

API -> Audit : Log response\n(AuditEvent)

API - -> App : 200 {reply, agentsUsed,\nguardDecision}
App - -> Patient : Display response
@enduml

PlantUML version 1.2020.02(Sun Mar 01 10:22:07 UTC 2020)
(GPL source distribution)
Java Runtime: OpenJDK Runtime Environment
JVM: OpenJDK 64-Bit Server VM
Java Version: 17.0.18+8
Operating System: Linux
Default Encoding: UTF-8
Language: en
Country: null
--></g></svg>