<?xml version="1.0" encoding="UTF-8" standalone="no"?><svg xmlns="http://www.w3.org/2000/svg" xmlns:xlink="http://www.w3.org/1999/xlink" contentScriptType="application/ecmascript" contentStyleType="text/css" height="345px" preserveAspectRatio="none" style="width:413px;height:345px;" version="1.1" viewBox="0 0 413 345" width="413px" zoomAndPan="magnify"><defs><filter height="300%" id="f1rvuym5rd7y0w" width="300%" x="-1" y="-1"><feGaussianBlur result="blurOut" stdDeviation="2.0"/><feColorMatrix in="blurOut" result="blurOut2" type="matrix" values="0 0 0 0 0 0 0 0 0 0 0 0 0 0 0 0 0 0 .4 0"/><feOffset dx="4.0" dy="4.0" in="blurOut2" result="blurOut3"/><feBlend in="SourceGraphic" in2="blurOut3" mode="normal"/></filter></defs><g><!--MD5=[64e3f0ab5274fed40e3ed55cd531e99d]
entity AIUI--><rect fill="#FEFECE" filter="url(#f1rvuym5rd7y0w)" height="62.5938" style="stroke: #A80036; stroke-width: 1.5;" width="135" x="142" y="8"/><rect fill="#FEFECE" height="10" style="stroke: #A80036; stroke-width: 1.5;" width="15" x="257" y="13"/><rect fill="#FEFECE" height="2" style="stroke: #A80036; stroke-width: 1.5;" width="4" x="255" y="15"/><rect fill="#FEFECE" height="2" style="stroke: #A80036; stroke-width: 1.5;" width="4" x="255" y="19"/><text fill="#000000" font-family="sans-serif" font-size="14" lengthAdjust="spacingAndGlyphs" textLength="79" x="157" y="40.9951">AI Frontend</text><text fill="#000000" font-family="sans-serif" font-size="14" lengthAdjust="spacingAndGlyphs" textLength="95" x="157" y="57.292">(Admin Panel)</text><!--MD5=[ababbe2c331c6749e5177501ecdcd0d2]
entity AISvc--><rect fill="#FEFECE" filter="url(#f1rvuym5rd7y0w)" height="62.5938" style="stroke: #A80036; stroke-width: 1.5;" width="113" x="153" y="132"/><rect fill="#FEFECE" height="10" style="stroke: #A80036; stroke-width: 1.5;" width="15" x="246" y="137"/><rect fill="#FEFECE" height="2" style="stroke: #A80036; stroke-width: 1.5;" width="4" x="244" y="139"/><rect fill="#FEFECE" height="2" style="stroke: #A80036; stroke-width: 1.5;" width="4" x="244" y="143"/><text fill="#000000" font-family="sans-serif" font-size="14" lengthAdjust="spacingAndGlyphs" textLength="66" x="168" y="164.9951">AI Service</text><text fill="#000000" font-family="sans-serif" font-size="14" lengthAdjust="spacingAndGlyphs" textLength="73" x="168" y="181.292">/api/auth/*</text><!--MD5=[7b69fc0b1edf73f91d8fc62e7ed873dd]
entity SSODB--><path d="M6,282 C6,272 61.5,272 61.5,272 C61.5,272 117,272 117,282 L117,323.5938 C117,333.5938 61.5,333.5938 61.5,333.5938 C61.5,333.5938 6,333.5938 6,323.5938 L6,282 " fill="#FEFECE" filter="url(#f1rvuym5rd7y0w)" style="stroke: #000000; stroke-width: 1.5;"/><path d="M6,282 C6,292 61.5,292 61.5,292 C61.5,292 117,292 117,282 " fill="none" style="stroke: #000000; stroke-width: 1.5;"/><text fill="#000000" font-family="sans-serif" font-size="14" lengthAdjust="spacingAndGlyphs" textLength="54" x="16" y="308.9951">SSO DB</text><text fill="#000000" font-family="sans-serif" font-size="14" lengthAdjust="spacingAndGlyphs" textLength="91" x="16" y="325.292">(PostgreSQL)</text><!--MD5=[60ba60559b1f14da4566939cb5c97314]
entity OEDB--><path d="M152.5,282 C152.5,272 209.5,272 209.5,272 C209.5,272 266.5,272 266.5,282 L266.5,323.5938 C266.5,333.5938 209.5,333.5938 209.5,333.5938 C209.5,333.5938 152.5,333.5938 152.5,323.5938 L152.5,282 " fill="#FEFECE" filter="url(#f1rvuym5rd7y0w)" style="stroke: #000000; stroke-width: 1.5;"/><path d="M152.5,282 C152.5,292 209.5,292 209.5,292 C209.5,292 266.5,292 266.5,282 " fill="none" style="stroke: #000000; stroke-width: 1.5;"/><text fill="#000000" font-family="sans-serif" font-size="14" lengthAdjust="spacingAndGlyphs" textLength="94" x="162.5" y="308.9951">OpenEMR DB</text><text fill="#000000" font-family="sans-serif" font-size="14" lengthAdjust="spacingAndGlyphs" textLength="67" x="162.5" y="325.292">(MariaDB)</text><!--MD5=[53b75b6e6f605f9e36928105133807e1]
entity FHIR--><path d="M301.5,282 C301.5,272 343.5,272 343.5,272 C343.5,272 385.5,272 385.5,282 L385.5,323.5938 C385.5,333.5938 343.5,333.5938 343.5,333.5938 C343.5,333.5938 301.5,333.5938 301.5,323.5938 L301.5,282 " fill="#FEFECE" filter="url(#f1rvuym5rd7y0w)" style="stroke: #000000; stroke-width: 1.5;"/><path d="M301.5,282 C301.5,292 343.5,292 343.5,292 C343.5,292 385.5,292 385.5,282 " fill="none" style="stroke: #000000; stroke-width: 1.5;"/><text fill="#000000" font-family="sans-serif" font-size="14" lengthAdjust="spacingAndGlyphs" textLength="64" x="311.5" y="308.9951">Medplum</text><text fill="#000000" font-family="sans-serif" font-size="14" lengthAdjust="spacingAndGlyphs" textLength="41" x="311.5" y="325.292">(FHIR)</text><!--MD5=[1aed871b0a36f21219fefc2a7a3e09a4]
link AIUI to AISvc--><path d="M209.5,71.29 C209.5,88.05 209.5,108.88 209.5,126.4 " fill="none" id="AIUI-&gt;AISvc" style="stroke: #A80036; stroke-width: 1.0;"/><polygon fill="#A80036" points="209.5,131.72,213.5,122.72,209.5,126.72,205.5,122.72,209.5,131.72" style="stroke: #A80036; stroke-width: 1.0;"/><!--MD5=[a809c3e95340d6a9a9940f8d314ee28b]
link AISvc to SSODB--><path d="M176.65,195.02 C153.29,216.72 121.91,245.88 97.8,268.27 " fill="none" id="AISvc-&gt;SSODB" style="stroke: #A80036; stroke-width: 1.0;"/><polygon fill="#A80036" points="94,271.81,103.3212,268.6296,97.6685,268.4127,97.8855,262.76,94,271.81" style="stroke: #A80036; stroke-width: 1.0;"/><!--MD5=[552a8a83dc94131b9f3f4b8006cc69fa]
link AISvc to OEDB--><path d="M209.5,195.02 C209.5,216.11 209.5,244.25 209.5,266.37 " fill="none" id="AISvc-&gt;OEDB" style="stroke: #A80036; stroke-width: 1.0;"/><polygon fill="#A80036" points="209.5,271.57,213.5,262.57,209.5,266.57,205.5,262.57,209.5,271.57" style="stroke: #A80036; stroke-width: 1.0;"/><text fill="#000000" font-family="sans-serif" font-size="13" lengthAdjust="spacingAndGlyphs" textLength="61" x="210.5" y="238.0669">user sync</text><!--MD5=[1fba30c5ced4d268217db9f68e79aa2a]
link AISvc to FHIR--><path d="M247.84,195.01 C258.76,204.26 270.41,214.71 280.5,225 C293.43,238.19 306.55,253.8 317.45,267.5 " fill="none" id="AISvc-&gt;FHIR" style="stroke: #A80036; stroke-width: 1.0;"/><polygon fill="#A80036" points="320.75,271.69,318.315,262.1469,317.6527,267.7649,312.0348,267.1026,320.75,271.69" style="stroke: #A80036; stroke-width: 1.0;"/><text fill="#000000" font-family="sans-serif" font-size="13" lengthAdjust="spacingAndGlyphs" textLength="106" x="295.5" y="238.0669">Practitioner sync</text><!--MD5=[01ce3d863c06d3bf2855144917213f40]
@startuml
skinparam componentStyle uml2

component "AI Frontend\n(Admin Panel)" as AIUI
component "AI Service\n/api/auth/*" as AISvc

database "SSO DB\n(PostgreSQL)" as SSODB
database "OpenEMR DB\n(MariaDB)" as OEDB
database "Medplum\n(FHIR)" as FHIR

AIUI - -> AISvc
AISvc - -> SSODB
AISvc - -> OEDB : user sync
AISvc - -> FHIR : Practitioner sync
@enduml

PlantUML version 1.2020.02(Sun Mar 01 10:22:07 UTC 2020)
(GPL source distribution)
Java Runtime: OpenJDK Runtime Environment
JVM: OpenJDK 64-Bit Server VM
Java Version: 17.0.18+8
Operating System: Linux
Default Encoding: UTF-8
Language: en
Country: null
--></g></svg>