<?xml version="1.0" encoding="UTF-8" standalone="no"?><svg xmlns="http://www.w3.org/2000/svg" xmlns:xlink="http://www.w3.org/1999/xlink" contentScriptType="application/ecmascript" contentStyleType="text/css" height="823px" preserveAspectRatio="none" style="width:500px;height:823px;" version="1.1" viewBox="0 0 500 823" width="500px" zoomAndPan="magnify"><defs><filter height="300%" id="fq37dl5fscwfn" width="300%" x="-1" y="-1"><feGaussianBlur result="blurOut" stdDeviation="2.0"/><feColorMatrix in="blurOut" result="blurOut2" type="matrix" values="0 0 0 0 0 0 0 0 0 0 0 0 0 0 0 0 0 0 .4 0"/><feOffset dx="4.0" dy="4.0" in="blurOut2" result="blurOut3"/><feBlend in="SourceGraphic" in2="blurOut3" mode="normal"/></filter></defs><g><!--MD5=[b819dbd984ee237cc2f57c3f1d55dd8c]
cluster PatientLayer--><polygon fill="#FFFFFF" filter="url(#fq37dl5fscwfn)" points="30,32,197,32,204,54.2969,467,54.2969,467,162,30,162,30,32" style="stroke: #000000; stroke-width: 1.5;"/><line style="stroke: #000000; stroke-width: 1.5;" x1="30" x2="204" y1="54.2969" y2="54.2969"/><text fill="#000000" font-family="sans-serif" font-size="14" font-weight="bold" lengthAdjust="spacingAndGlyphs" textLength="161" x="34" y="46.9951">Patient-Facing Layer</text><!--MD5=[078822402786dbdd8ad2dd7d64333d45]
cluster AILayer--><polygon fill="#FFFFFF" filter="url(#fq37dl5fscwfn)" points="30,227,191,227,198,249.2969,478,249.2969,478,389,30,389,30,227" style="stroke: #000000; stroke-width: 1.5;"/><line style="stroke: #000000; stroke-width: 1.5;" x1="30" x2="198" y1="249.2969" y2="249.2969"/><text fill="#000000" font-family="sans-serif" font-size="14" font-weight="bold" lengthAdjust="spacingAndGlyphs" textLength="155" x="34" y="241.9951">AI &amp; Services Layer</text><!--MD5=[b3eeb5d98d3988569c92a94d7c2ea02d]
cluster DataLayer--><polygon fill="#FFFFFF" filter="url(#fq37dl5fscwfn)" points="30,454,263,454,270,476.2969,411,476.2969,411,600,30,600,30,454" style="stroke: #000000; stroke-width: 1.5;"/><line style="stroke: #000000; stroke-width: 1.5;" x1="30" x2="270" y1="476.2969" y2="476.2969"/><text fill="#000000" font-family="sans-serif" font-size="14" font-weight="bold" lengthAdjust="spacingAndGlyphs" textLength="227" x="34" y="468.9951">Data &amp; Interoperability Layer</text><!--MD5=[3ce52d62ca671bb53c3b9cf09398ff87]
cluster ClinicalLayer--><polygon fill="#FFFFFF" filter="url(#fq37dl5fscwfn)" points="30,665,177,665,184,687.2969,439,687.2969,439,811,30,811,30,665" style="stroke: #000000; stroke-width: 1.5;"/><line style="stroke: #000000; stroke-width: 1.5;" x1="30" x2="184" y1="687.2969" y2="687.2969"/><text fill="#000000" font-family="sans-serif" font-size="14" font-weight="bold" lengthAdjust="spacingAndGlyphs" textLength="141" x="34" y="679.9951">Clinical EMR Layer</text><!--MD5=[67dfad4f9a2852edbca078552cbb16c2]
entity PortalApp--><rect fill="#FEFECE" filter="url(#fq37dl5fscwfn)" height="62.5938" style="stroke: #A80036; stroke-width: 1.5;" width="370" x="73" y="75"/><rect fill="#FEFECE" height="10" style="stroke: #A80036; stroke-width: 1.5;" width="15" x="423" y="80"/><rect fill="#FEFECE" height="2" style="stroke: #A80036; stroke-width: 1.5;" width="4" x="421" y="82"/><rect fill="#FEFECE" height="2" style="stroke: #A80036; stroke-width: 1.5;" width="4" x="421" y="86"/><text fill="#000000" font-family="sans-serif" font-size="14" lengthAdjust="spacingAndGlyphs" textLength="284" x="88" y="107.9951">Patient Portal Native (Expo / React Native)</text><text fill="#000000" font-family="sans-serif" font-size="14" font-style="italic" lengthAdjust="spacingAndGlyphs" textLength="330" x="88" y="124.292">iOS &amp; Android - vitals, meds, appointments, chat</text><!--MD5=[c9c2ce0dc7d05ee8d41595d3fe1c3c2d]
entity AIService--><rect fill="#FEFECE" filter="url(#fq37dl5fscwfn)" height="95.1875" style="stroke: #A80036; stroke-width: 1.5;" width="190" x="264" y="270"/><rect fill="#FEFECE" height="10" style="stroke: #A80036; stroke-width: 1.5;" width="15" x="434" y="275"/><rect fill="#FEFECE" height="2" style="stroke: #A80036; stroke-width: 1.5;" width="4" x="432" y="277"/><rect fill="#FEFECE" height="2" style="stroke: #A80036; stroke-width: 1.5;" width="4" x="432" y="281"/><text fill="#000000" font-family="sans-serif" font-size="14" lengthAdjust="spacingAndGlyphs" textLength="140" x="279" y="302.9951">AI Service (Node/TS)</text><text fill="#000000" font-family="sans-serif" font-size="14" font-style="italic" lengthAdjust="spacingAndGlyphs" textLength="150" x="279" y="319.292">6 agents · 18 features</text><text fill="#000000" font-family="sans-serif" font-size="14" font-style="italic" lengthAdjust="spacingAndGlyphs" textLength="123" x="279" y="335.5889">LLM orchestration</text><text fill="#000000" font-family="sans-serif" font-size="14" font-style="italic" lengthAdjust="spacingAndGlyphs" textLength="67" x="279" y="351.8857">Port 4003</text><!--MD5=[8ed0c55733eadba88b57b96e562201c3]
entity SSO--><rect fill="#FEFECE" filter="url(#fq37dl5fscwfn)" height="95.1875" style="stroke: #A80036; stroke-width: 1.5;" width="155" x="73.5" y="270"/><rect fill="#FEFECE" height="10" style="stroke: #A80036; stroke-width: 1.5;" width="15" x="208.5" y="275"/><rect fill="#FEFECE" height="2" style="stroke: #A80036; stroke-width: 1.5;" width="4" x="206.5" y="277"/><rect fill="#FEFECE" height="2" style="stroke: #A80036; stroke-width: 1.5;" width="4" x="206.5" y="281"/><text fill="#000000" font-family="sans-serif" font-size="14" lengthAdjust="spacingAndGlyphs" textLength="83" x="88.5" y="302.9951">SSO Service</text><text fill="#000000" font-family="sans-serif" font-size="14" font-style="italic" lengthAdjust="spacingAndGlyphs" textLength="82" x="88.5" y="319.292">Unified auth</text><text fill="#000000" font-family="sans-serif" font-size="14" font-style="italic" lengthAdjust="spacingAndGlyphs" textLength="105" x="88.5" y="335.5889">OpenEMR sync</text><text fill="#000000" font-family="sans-serif" font-size="14" font-style="italic" lengthAdjust="spacingAndGlyphs" textLength="115" x="88.5" y="351.8857">Postgres-backed</text><!--MD5=[4d28d1413f664be6346d7dd3f17fb502]
entity Medplum--><rect fill="#FEFECE" filter="url(#fq37dl5fscwfn)" height="78.8906" style="stroke: #A80036; stroke-width: 1.5;" width="314" x="73" y="497"/><rect fill="#FEFECE" height="10" style="stroke: #A80036; stroke-width: 1.5;" width="15" x="367" y="502"/><rect fill="#FEFECE" height="2" style="stroke: #A80036; stroke-width: 1.5;" width="4" x="365" y="504"/><rect fill="#FEFECE" height="2" style="stroke: #A80036; stroke-width: 1.5;" width="4" x="365" y="508"/><text fill="#000000" font-family="sans-serif" font-size="14" lengthAdjust="spacingAndGlyphs" textLength="157" x="88" y="529.9951">Medplum (FHIR R4 API)</text><text fill="#000000" font-family="sans-serif" font-size="14" font-style="italic" lengthAdjust="spacingAndGlyphs" textLength="274" x="88" y="546.292">FHIR store · Subscriptions · Terminology</text><text fill="#000000" font-family="sans-serif" font-size="14" font-style="italic" lengthAdjust="spacingAndGlyphs" textLength="250" x="88" y="562.5889">API: port 8103 · Admin UI: port 3000</text><!--MD5=[878a7bcf4db7ae2ad2d7c9311eab903e]
entity OpenEMR--><rect fill="#FEFECE" filter="url(#fq37dl5fscwfn)" height="78.8906" style="stroke: #A80036; stroke-width: 1.5;" width="342" x="73" y="708"/><rect fill="#FEFECE" height="10" style="stroke: #A80036; stroke-width: 1.5;" width="15" x="395" y="713"/><rect fill="#FEFECE" height="2" style="stroke: #A80036; stroke-width: 1.5;" width="4" x="393" y="715"/><rect fill="#FEFECE" height="2" style="stroke: #A80036; stroke-width: 1.5;" width="4" x="393" y="719"/><text fill="#000000" font-family="sans-serif" font-size="14" lengthAdjust="spacingAndGlyphs" textLength="115" x="88" y="740.9951">OpenEMR v7.0.2</text><text fill="#000000" font-family="sans-serif" font-size="14" font-style="italic" lengthAdjust="spacingAndGlyphs" textLength="302" x="88" y="757.292">Patient records · Orders · Billing · Scheduling</text><text fill="#000000" font-family="sans-serif" font-size="14" font-style="italic" lengthAdjust="spacingAndGlyphs" textLength="287" x="88" y="773.5889">Web UI: port 8081 (HTTP) / 8080 (HTTPS)</text><!--MD5=[cb4c2f461499ab2ed1b09d67d84d2581]
link PatientLayer to AILayer--><path d="M38,162.8101 C38,163.1638 38,163.5184 38,163.874 C38,164.5853 38,165.3003 38,166.019 C38,168.8937 38,171.8264 38,174.8055 C38,186.7217 38,199.38 38,212.0375 C38,215.2019 38,218.3662 38,221.5189 C38,223.0952 38,224.6686 38,226.2377 C38,226.4338 38,226.6299 38,226.8259 " fill="none" id="PatientLayer-&gt;AILayer" style="stroke: #A80036; stroke-width: 1.0; stroke-dasharray: 7.0,7.0;"/><polygon fill="#A80036" points="38,226.8259,42,217.8259,38,221.8259,34,217.8259,38,226.8259" style="stroke: #A80036; stroke-width: 1.0;"/><text fill="#000000" font-family="sans-serif" font-size="13" lengthAdjust="spacingAndGlyphs" textLength="92" x="39" y="199.0669">FHIR R4 / REST</text><!--MD5=[7993c6df8f430f658ac949d46a53451a]
link AILayer to DataLayer--><path d="M38,389.5479 C38,389.936 38,390.3248 38,390.7144 C38,391.4935 38,392.2754 38,393.0599 C38,394.629 38,396.2087 38,397.7973 C38,400.9746 38,404.188 38,407.4255 C38,413.9004 38,420.4716 38,427.0425 C38,433.6134 38,440.1842 38,446.6583 C38,448.2769 38,449.8894 38,451.4943 C38,452.2968 38,453.0974 38,453.8959 " fill="none" id="AILayer-&gt;DataLayer" style="stroke: #A80036; stroke-width: 1.0; stroke-dasharray: 7.0,7.0;"/><polygon fill="#A80036" points="38,453.8959,42,444.8959,38,448.8959,34,444.8959,38,453.8959" style="stroke: #A80036; stroke-width: 1.0;"/><text fill="#000000" font-family="sans-serif" font-size="13" lengthAdjust="spacingAndGlyphs" textLength="86" x="39" y="426.0669">FHIR R4 / SQL</text><!--MD5=[2e9d3c5c8254e6204e7eeb83eb8d9460]
link DataLayer to ClinicalLayer--><path d="M38,600.3731 C38,601.838 38,603.3159 38,604.8055 C38,616.7217 38,629.38 38,642.0375 C38,648.3663 38,654.6948 38,660.9303 C38,661.7098 38,662.4877 38,663.2641 C38,663.6523 38,664.04 38,664.4274 " fill="none" id="DataLayer-&gt;ClinicalLayer" style="stroke: #A80036; stroke-width: 1.0; stroke-dasharray: 7.0,7.0;"/><polygon fill="#A80036" points="38,664.4274,42,655.4274,38,659.4274,34,655.4274,38,664.4274" style="stroke: #A80036; stroke-width: 1.0;"/><text fill="#000000" font-family="sans-serif" font-size="13" lengthAdjust="spacingAndGlyphs" textLength="63" x="39" y="637.0669">HL7 / SQL</text><!--MD5=[2bdf3f9670ad9cc6c4315ce9968bd237]
@startuml
skinparam componentStyle uml2

package "Patient-Facing Layer" as PatientLayer {
  component "Patient Portal Native (Expo / React Native)\n//iOS & Android - vitals, meds, appointments, chat//" as PortalApp
}

package "AI & Services Layer" as AILayer {
  component "AI Service (Node/TS)\n//6 agents · 18 features//\n//LLM orchestration//\n//Port 4003//" as AIService
  component "SSO Service\n//Unified auth//\n//OpenEMR sync//\n//Postgres-backed//" as SSO
}

package "Data & Interoperability Layer" as DataLayer {
  component "Medplum (FHIR R4 API)\n//FHIR store · Subscriptions · Terminology//\n//API: port 8103 · Admin UI: port 3000//" as Medplum
}

package "Clinical EMR Layer" as ClinicalLayer {
  component "OpenEMR v7.0.2\n//Patient records · Orders · Billing · Scheduling//\n//Web UI: port 8081 (HTTP) / 8080 (HTTPS)//" as OpenEMR
}

PatientLayer ..> AILayer : FHIR R4 / REST
AILayer ..> DataLayer : FHIR R4 / SQL
DataLayer ..> ClinicalLayer : HL7 / SQL
@enduml

PlantUML version 1.2020.02(Sun Mar 01 10:22:07 UTC 2020)
(GPL source distribution)
Java Runtime: OpenJDK Runtime Environment
JVM: OpenJDK 64-Bit Server VM
Java Version: 17.0.18+8
Operating System: Linux
Default Encoding: UTF-8
Language: en
Country: null
--></g></svg>