<?xml version="1.0" encoding="UTF-8" standalone="no"?><svg xmlns="http://www.w3.org/2000/svg" xmlns:xlink="http://www.w3.org/1999/xlink" contentScriptType="application/ecmascript" contentStyleType="text/css" height="725px" preserveAspectRatio="none" style="width:1310px;height:725px;" version="1.1" viewBox="0 0 1310 725" width="1310px" zoomAndPan="magnify"><defs><filter height="300%" id="f3nuuhybjigfh" width="300%" x="-1" y="-1"><feGaussianBlur result="blurOut" stdDeviation="2.0"/><feColorMatrix in="blurOut" result="blurOut2" type="matrix" values="0 0 0 0 0 0 0 0 0 0 0 0 0 0 0 0 0 0 .4 0"/><feOffset dx="4.0" dy="4.0" in="blurOut2" result="blurOut3"/><feBlend in="SourceGraphic" in2="blurOut3" mode="normal"/></filter></defs><g><!--MD5=[6701fae3df526cca14a51b200d8bfe9a]
cluster GCP--><path d="M46.3298,168.0165 C72.911,120.2102 105.2138,119.4078 134.161,165.8107 C158.1886,136.8368 187.7067,135.5057 208.7626,169.3404 C235.5974,134.8515 268.0235,135.8627 292.572,172.0515 C316.0293,129.0198 361.9772,123.5539 388.815,168.3469 C408.6685,121.5639 441.4598,123.5487 472.0108,157.2952 C497.9781,121.8758 538.4319,120.6392 558.1336,164.1332 C584.3699,121.0265 616.4226,123.4848 643.5677,163.1956 C663.4878,131.9917 693.8612,128.621 716.5151,160.0097 C749.497,121.5468 784.9272,120.9037 813.7624,164.9001 C836.7692,134.0473 866.9659,130.4769 888.9649,166.0412 C914.6026,116.4491 951.1359,121.741 981.552,161.0655 C1010.2811,122.3804 1034.1939,123.1891 1057.893,165.7895 C1082.7528,120.5563 1118.0561,116.6937 1147.3641,161.3627 C1178.4216,121.5831 1206.9702,130.4057 1233,167 C1236.9555,161.9399 1240.8033,162.2719 1243.5875,168.1354 C1277.9535,189.6462 1284.5693,229.2376 1244.2486,251.3419 C1287.6133,275.0468 1298.2513,306.2818 1254.7238,340.227 C1288.4377,366.4455 1289.8612,392.1959 1254.1702,417.9197 C1293.093,445.9168 1280.0912,481.0161 1243.2268,498.7529 C1278.8093,516.3503 1276.5275,543.6218 1247.292,565.1856 C1281.8858,604.1563 1278.697,632.2044 1226,649 C1230.855,649.2964 1232.7832,652.4498 1230.0229,656.7164 C1203.8725,687.2242 1175.0721,684.1069 1154.1145,650.5624 C1127.6227,691.8401 1087.4005,701.3152 1058.2433,653.4283 C1036.7285,695.7705 1005.2456,692.5842 979.0249,658.2929 C948.1468,702.8796 917.1326,700.6845 888.0249,656.4785 C870.6974,691.2301 834.2679,697.7867 812.8822,660.7248 C781.1042,699.0918 752.486,701.1638 727.8063,653.6898 C710.6449,700.5334 670.2767,705.6248 641.7322,664.8755 C619.8491,701.0562 585.1021,699.9919 561.7344,666.5821 C534.9278,713.7341 499.5535,703.1644 474.7763,664.5251 C446.0765,702.9929 406.0266,709.368 378.3069,663.4053 C353.06,708.5845 317.239,698.4092 294.1208,661.2294 C261.8416,698.2602 236.5812,688.8265 212.1991,652.4199 C195.5853,693.409 155.6645,700.3221 127.8926,664.6985 C89.4884,703.5685 48.7273,687.9912 30,642 C38.2614,639.0348 42.0703,643.7472 40.5233,651.5688 C-8.9278,629.0307 -11.1513,598.2262 29.7227,564.4855 C-5.1215,536.3667 -5.9005,508.8883 34.3014,485.0979 C5.9679,463.4971 2.39,442.1204 31.8013,418.3566 C-7.3895,389.5715 -2.1441,358.5199 38.998,336.8258 C2.3603,316.0465 -6.7028,289.5391 30.5103,260.5428 C-8.7239,225.8229 -13.9414,188.8995 37,160 C43.1886,158.7912 46.7161,161.5733 46.3298,168.0165 " fill="#FFFFFF" style="stroke: #000000; stroke-width: 1.5;"/><text fill="#000000" font-family="sans-serif" font-size="14" font-weight="bold" lengthAdjust="spacingAndGlyphs" textLength="177" x="543" y="177.9951">Google Cloud Platform</text><!--MD5=[6d823dce220ebc8cce3fea5d65e0a331]
cluster K8s--><polygon fill="#FFFFFF" filter="url(#f3nuuhybjigfh)" points="46,323,56,313,1217,313,1217,505,1207,515,46,515,46,323" style="stroke: #000000; stroke-width: 1.5;"/><line style="stroke: #000000; stroke-width: 1.5;" x1="1207" x2="1216" y1="323" y2="314"/><line style="stroke: #000000; stroke-width: 1.5;" x1="46" x2="1207" y1="323" y2="323"/><line style="stroke: #000000; stroke-width: 1.5;" x1="1207" x2="1207" y1="323" y2="515"/><text fill="#000000" font-family="sans-serif" font-size="14" font-weight="bold" lengthAdjust="spacingAndGlyphs" textLength="170" x="542.5" y="338.9951">GKE Autopilot Cluster</text><text fill="#000000" font-family="sans-serif" font-size="14" font-weight="bold" lengthAdjust="spacingAndGlyphs" textLength="139" x="558" y="355.292">(medseal-cluster)</text><!--MD5=[9ee27f07be7e60f2bdbf623e4edfc425]
cluster Namespace: medseal--><polygon fill="#FFFFFF" filter="url(#f3nuuhybjigfh)" points="70,377,244,377,251,399.2969,1193,399.2969,1193,491,70,491,70,377" style="stroke: #000000; stroke-width: 1.5;"/><line style="stroke: #000000; stroke-width: 1.5;" x1="70" x2="251" y1="399.2969" y2="399.2969"/><text fill="#000000" font-family="sans-serif" font-size="14" font-weight="bold" lengthAdjust="spacingAndGlyphs" textLength="168" x="74" y="391.9951">Namespace: medseal</text><!--MD5=[993e0d4fdeccee87e9dafe04241cdfbd]
entity MySQL--><path d="M82,588.5 C82,578.5 172,578.5 172,578.5 C172,578.5 262,578.5 262,588.5 L262,630.0938 C262,640.0938 172,640.0938 172,640.0938 C172,640.0938 82,640.0938 82,630.0938 L82,588.5 " fill="#FEFECE" filter="url(#f3nuuhybjigfh)" style="stroke: #000000; stroke-width: 1.5;"/><path d="M82,588.5 C82,598.5 172,598.5 172,598.5 C172,598.5 262,598.5 262,588.5 " fill="none" style="stroke: #000000; stroke-width: 1.5;"/><text fill="#000000" font-family="sans-serif" font-size="14" lengthAdjust="spacingAndGlyphs" textLength="147" x="92" y="615.4951">Cloud SQL MySQL 8.0</text><text fill="#000000" font-family="sans-serif" font-size="14" lengthAdjust="spacingAndGlyphs" textLength="160" x="92" y="631.792">(medseal-openemr-db)</text><!--MD5=[f6b3c4ec609d704a8f29c3992fcc8101]
entity PG--><path d="M297.5,588.5 C297.5,578.5 387,578.5 387,578.5 C387,578.5 476.5,578.5 476.5,588.5 L476.5,630.0938 C476.5,640.0938 387,640.0938 387,640.0938 C387,640.0938 297.5,640.0938 297.5,630.0938 L297.5,588.5 " fill="#FEFECE" filter="url(#f3nuuhybjigfh)" style="stroke: #000000; stroke-width: 1.5;"/><path d="M297.5,588.5 C297.5,598.5 387,598.5 387,598.5 C387,598.5 476.5,598.5 476.5,588.5 " fill="none" style="stroke: #000000; stroke-width: 1.5;"/><text fill="#000000" font-family="sans-serif" font-size="14" lengthAdjust="spacingAndGlyphs" textLength="159" x="307.5" y="615.4951">Cloud SQL Postgres 16</text><text fill="#000000" font-family="sans-serif" font-size="14" lengthAdjust="spacingAndGlyphs" textLength="115" x="307.5" y="631.792">(medseal-pg-db)</text><!--MD5=[f96d690baea4a0823d36c98ba0c3a2b4]
entity Redis--><rect fill="#FEFECE" filter="url(#f3nuuhybjigfh)" height="62.5938" style="stroke: #A80036; stroke-width: 1.5;" width="174" x="512" y="578"/><rect fill="#FEFECE" height="10" style="stroke: #A80036; stroke-width: 1.5;" width="15" x="666" y="583"/><rect fill="#FEFECE" height="2" style="stroke: #A80036; stroke-width: 1.5;" width="4" x="664" y="585"/><rect fill="#FEFECE" height="2" style="stroke: #A80036; stroke-width: 1.5;" width="4" x="664" y="589"/><text fill="#000000" font-family="sans-serif" font-size="14" lengthAdjust="spacingAndGlyphs" textLength="134" x="527" y="610.9951">Memorystore Redis</text><text fill="#000000" font-family="sans-serif" font-size="14" lengthAdjust="spacingAndGlyphs" textLength="108" x="527" y="627.292">(medseal-redis)</text><!--MD5=[ce3173b5a33f0c0cbda863f47c49e4bb]
entity NFS--><rect fill="#FEFECE" filter="url(#f3nuuhybjigfh)" height="52.5938" rx="35" ry="35" style="stroke: #000000; stroke-width: 1.5;" width="120" x="898" y="583"/><text fill="#000000" font-family="sans-serif" font-size="14" lengthAdjust="spacingAndGlyphs" textLength="90" x="908" y="605.9951">Filestore NFS</text><text fill="#000000" font-family="sans-serif" font-size="14" lengthAdjust="spacingAndGlyphs" textLength="100" x="908" y="622.292">(orthanc_data)</text><!--MD5=[2298652fe2fee667f4f45b10180c7a4f]
entity GCS--><rect fill="#FEFECE" filter="url(#f3nuuhybjigfh)" height="52.5938" rx="35" ry="35" style="stroke: #000000; stroke-width: 1.5;" width="141" x="721.5" y="583"/><text fill="#000000" font-family="sans-serif" font-size="14" lengthAdjust="spacingAndGlyphs" textLength="98" x="731.5" y="605.9951">Cloud Storage</text><text fill="#000000" font-family="sans-serif" font-size="14" lengthAdjust="spacingAndGlyphs" textLength="121" x="731.5" y="622.292">(medplum-binary)</text><!--MD5=[b77750067e160c5e66c823a87f4eba16]
entity LB--><rect fill="#FEFECE" filter="url(#f3nuuhybjigfh)" height="78.8906" style="stroke: #A80036; stroke-width: 1.5;" width="143" x="530.5" y="187"/><rect fill="#FEFECE" height="10" style="stroke: #A80036; stroke-width: 1.5;" width="15" x="653.5" y="192"/><rect fill="#FEFECE" height="2" style="stroke: #A80036; stroke-width: 1.5;" width="4" x="651.5" y="194"/><rect fill="#FEFECE" height="2" style="stroke: #A80036; stroke-width: 1.5;" width="4" x="651.5" y="198"/><text fill="#000000" font-family="sans-serif" font-size="14" lengthAdjust="spacingAndGlyphs" textLength="85" x="545.5" y="219.9951">GCE Ingress</text><text fill="#000000" font-family="sans-serif" font-size="14" lengthAdjust="spacingAndGlyphs" textLength="97" x="545.5" y="236.292">Load Balancer</text><text fill="#000000" font-family="sans-serif" font-size="14" lengthAdjust="spacingAndGlyphs" textLength="103" x="545.5" y="252.5889">(34.54.226.15)</text><!--MD5=[ababbe2c331c6749e5177501ecdcd0d2]
entity AISvc--><rect fill="#FEFECE" filter="url(#f3nuuhybjigfh)" height="62.5938" style="stroke: #A80036; stroke-width: 1.5;" width="106" x="86" y="412"/><rect fill="#FEFECE" height="10" style="stroke: #A80036; stroke-width: 1.5;" width="15" x="172" y="417"/><rect fill="#FEFECE" height="2" style="stroke: #A80036; stroke-width: 1.5;" width="4" x="170" y="419"/><rect fill="#FEFECE" height="2" style="stroke: #A80036; stroke-width: 1.5;" width="4" x="170" y="423"/><text fill="#000000" font-family="sans-serif" font-size="14" lengthAdjust="spacingAndGlyphs" textLength="66" x="101" y="444.9951">AI Service</text><text fill="#000000" font-family="sans-serif" font-size="14" lengthAdjust="spacingAndGlyphs" textLength="41" x="101" y="461.292">:4003</text><!--MD5=[64e3f0ab5274fed40e3ed55cd531e99d]
entity AIUI--><rect fill="#FEFECE" filter="url(#f3nuuhybjigfh)" height="62.5938" style="stroke: #A80036; stroke-width: 1.5;" width="119" x="227.5" y="412"/><rect fill="#FEFECE" height="10" style="stroke: #A80036; stroke-width: 1.5;" width="15" x="326.5" y="417"/><rect fill="#FEFECE" height="2" style="stroke: #A80036; stroke-width: 1.5;" width="4" x="324.5" y="419"/><rect fill="#FEFECE" height="2" style="stroke: #A80036; stroke-width: 1.5;" width="4" x="324.5" y="423"/><text fill="#000000" font-family="sans-serif" font-size="14" lengthAdjust="spacingAndGlyphs" textLength="79" x="242.5" y="444.9951">AI Frontend</text><text fill="#000000" font-family="sans-serif" font-size="14" lengthAdjust="spacingAndGlyphs" textLength="23" x="242.5" y="461.292">:80</text><!--MD5=[c0fcde399db9bffac392b7b846ffb82a]
entity OE--><rect fill="#FEFECE" filter="url(#f3nuuhybjigfh)" height="62.5938" style="stroke: #A80036; stroke-width: 1.5;" width="109" x="381.5" y="412"/><rect fill="#FEFECE" height="10" style="stroke: #A80036; stroke-width: 1.5;" width="15" x="470.5" y="417"/><rect fill="#FEFECE" height="2" style="stroke: #A80036; stroke-width: 1.5;" width="4" x="468.5" y="419"/><rect fill="#FEFECE" height="2" style="stroke: #A80036; stroke-width: 1.5;" width="4" x="468.5" y="423"/><text fill="#000000" font-family="sans-serif" font-size="14" lengthAdjust="spacingAndGlyphs" textLength="69" x="396.5" y="444.9951">OpenEMR</text><text fill="#000000" font-family="sans-serif" font-size="14" lengthAdjust="spacingAndGlyphs" textLength="23" x="396.5" y="461.292">:80</text><!--MD5=[585f923d6ab20c815228e62f40801d15]
entity MedSrv--><rect fill="#FEFECE" filter="url(#f3nuuhybjigfh)" height="62.5938" style="stroke: #A80036; stroke-width: 1.5;" width="152" x="526" y="412"/><rect fill="#FEFECE" height="10" style="stroke: #A80036; stroke-width: 1.5;" width="15" x="658" y="417"/><rect fill="#FEFECE" height="2" style="stroke: #A80036; stroke-width: 1.5;" width="4" x="656" y="419"/><rect fill="#FEFECE" height="2" style="stroke: #A80036; stroke-width: 1.5;" width="4" x="656" y="423"/><text fill="#000000" font-family="sans-serif" font-size="14" lengthAdjust="spacingAndGlyphs" textLength="112" x="541" y="444.9951">Medplum Server</text><text fill="#000000" font-family="sans-serif" font-size="14" lengthAdjust="spacingAndGlyphs" textLength="41" x="541" y="461.292">:8103</text><!--MD5=[a343950af2821620218d5a1c83abfcb9]
entity MedApp--><rect fill="#FEFECE" filter="url(#f3nuuhybjigfh)" height="62.5938" style="stroke: #A80036; stroke-width: 1.5;" width="135" x="713.5" y="412"/><rect fill="#FEFECE" height="10" style="stroke: #A80036; stroke-width: 1.5;" width="15" x="828.5" y="417"/><rect fill="#FEFECE" height="2" style="stroke: #A80036; stroke-width: 1.5;" width="4" x="826.5" y="419"/><rect fill="#FEFECE" height="2" style="stroke: #A80036; stroke-width: 1.5;" width="4" x="826.5" y="423"/><text fill="#000000" font-family="sans-serif" font-size="14" lengthAdjust="spacingAndGlyphs" textLength="95" x="728.5" y="444.9951">Medplum App</text><text fill="#000000" font-family="sans-serif" font-size="14" lengthAdjust="spacingAndGlyphs" textLength="41" x="728.5" y="461.292">:3000</text><!--MD5=[33308ecb4bfdae229605c9490514d37e]
entity PACS--><rect fill="#FEFECE" filter="url(#f3nuuhybjigfh)" height="62.5938" style="stroke: #A80036; stroke-width: 1.5;" width="136" x="884" y="412"/><rect fill="#FEFECE" height="10" style="stroke: #A80036; stroke-width: 1.5;" width="15" x="1000" y="417"/><rect fill="#FEFECE" height="2" style="stroke: #A80036; stroke-width: 1.5;" width="4" x="998" y="419"/><rect fill="#FEFECE" height="2" style="stroke: #A80036; stroke-width: 1.5;" width="4" x="998" y="423"/><text fill="#000000" font-family="sans-serif" font-size="14" lengthAdjust="spacingAndGlyphs" textLength="96" x="899" y="444.9951">Orthanc PACS</text><text fill="#000000" font-family="sans-serif" font-size="14" lengthAdjust="spacingAndGlyphs" textLength="41" x="899" y="461.292">:8042</text><!--MD5=[e772e095dee4ea44c03124ed1e8c3390]
entity OHIF--><rect fill="#FEFECE" filter="url(#f3nuuhybjigfh)" height="62.5938" style="stroke: #A80036; stroke-width: 1.5;" width="122" x="1055" y="412"/><rect fill="#FEFECE" height="10" style="stroke: #A80036; stroke-width: 1.5;" width="15" x="1157" y="417"/><rect fill="#FEFECE" height="2" style="stroke: #A80036; stroke-width: 1.5;" width="4" x="1155" y="419"/><rect fill="#FEFECE" height="2" style="stroke: #A80036; stroke-width: 1.5;" width="4" x="1155" y="423"/><text fill="#000000" font-family="sans-serif" font-size="14" lengthAdjust="spacingAndGlyphs" textLength="82" x="1070" y="444.9951">OHIF Viewer</text><text fill="#000000" font-family="sans-serif" font-size="14" lengthAdjust="spacingAndGlyphs" textLength="23" x="1070" y="461.292">:80</text><!--MD5=[feb5939ce823acf5a8245c3205b3c7a1]
entity Users--><ellipse cx="602" cy="17.5" fill="#FEFECE" filter="url(#f3nuuhybjigfh)" rx="8" ry="8" style="stroke: #A80036; stroke-width: 1.5;"/><path d="M602,25.5 L602,52.5 M589,33.5 L615,33.5 M602,52.5 L589,67.5 M602,52.5 L615,67.5 " fill="none" filter="url(#f3nuuhybjigfh)" style="stroke: #A80036; stroke-width: 1.5;"/><text fill="#000000" font-family="sans-serif" font-size="14" lengthAdjust="spacingAndGlyphs" textLength="40" x="582" y="85.9951">Users</text><!--MD5=[33abb1d5ba1fc8a6159a72d50045e5b8]
link Users to LB--><path d="M602,89.44 C602,116.93 602,153.46 602,181.75 " fill="none" id="Users-&gt;LB" style="stroke: #A80036; stroke-width: 1.0;"/><polygon fill="#A80036" points="602,186.93,606,177.93,602,181.93,598,177.93,602,186.93" style="stroke: #A80036; stroke-width: 1.0;"/><text fill="#000000" font-family="sans-serif" font-size="13" lengthAdjust="spacingAndGlyphs" textLength="41" x="603" y="132.0669">HTTPS</text><!--MD5=[57fd22070b8dec6aa74cf29214fa9a53]
link LB to AISvc--><path d="M530.41,234.19 C431.51,244.66 259.63,267.69 210,305 C176.67,330.06 157.66,375.27 147.85,406.99 " fill="none" id="LB-&gt;AISvc" style="stroke: #A80036; stroke-width: 1.0;"/><polygon fill="#A80036" points="146.36,411.96,152.7877,404.4977,147.8033,407.1728,145.1282,402.1885,146.36,411.96" style="stroke: #A80036; stroke-width: 1.0;"/><!--MD5=[92ecb91b486b29dad1f2f6776857c184]
link LB to AIUI--><path d="M530.27,236.72 C479.22,246.41 411.52,265.98 364,305 C331.49,331.7 310.25,375.94 298.48,407.01 " fill="none" id="LB-&gt;AIUI" style="stroke: #A80036; stroke-width: 1.0;"/><polygon fill="#A80036" points="296.67,411.88,303.5566,404.8391,298.4131,407.1937,296.0585,402.0501,296.67,411.88" style="stroke: #A80036; stroke-width: 1.0;"/><!--MD5=[898cc65165536c597a9da7c16e3b928e]
link LB to OE--><path d="M548.51,266.08 C534.63,277.62 520.39,290.97 509,305 C483.63,336.24 463.08,377.65 450.32,406.83 " fill="none" id="LB-&gt;OE" style="stroke: #A80036; stroke-width: 1.0;"/><polygon fill="#A80036" points="448.19,411.77,455.4369,405.1005,450.1768,407.1817,448.0957,401.9216,448.19,411.77" style="stroke: #A80036; stroke-width: 1.0;"/><!--MD5=[8c381c940533afe296a91d8cd287620e]
link LB to MedSrv--><path d="M602,266.43 C602,306.39 602,368.03 602,406.77 " fill="none" id="LB-&gt;MedSrv" style="stroke: #A80036; stroke-width: 1.0;"/><polygon fill="#A80036" points="602,411.85,606,402.85,602,406.85,598,402.85,602,411.85" style="stroke: #A80036; stroke-width: 1.0;"/><!--MD5=[e9e44f55b35fa11a82526bd1ee056926]
link LB to MedApp--><path d="M654.99,266.1 C669.17,277.74 683.9,291.14 696,305 C723.59,336.61 747.94,378.2 763.43,407.32 " fill="none" id="LB-&gt;MedApp" style="stroke: #A80036; stroke-width: 1.0;"/><polygon fill="#A80036" points="765.84,411.89,765.1788,402.0634,763.5071,407.4676,758.1029,405.7959,765.84,411.89" style="stroke: #A80036; stroke-width: 1.0;"/><!--MD5=[8b74b0d920f09df6a48c3519fc55b64e]
link LB to PACS--><path d="M673.52,234.48 C730.5,243.12 809.76,262.36 866,305 C900.61,331.24 924.73,375.78 938.44,407.04 " fill="none" id="LB-&gt;PACS" style="stroke: #A80036; stroke-width: 1.0;"/><polygon fill="#A80036" points="940.55,411.93,940.6443,402.0816,938.5632,407.3417,933.3031,405.2605,940.55,411.93" style="stroke: #A80036; stroke-width: 1.0;"/><!--MD5=[1537e4eb6076fbbcaffef2e224e4ee42]
link LB to OHIF--><path d="M673.68,232.87 C781.9,242.18 980.48,264.34 1038,305 C1072.78,329.59 1094.06,374.9 1105.42,406.77 " fill="none" id="LB-&gt;OHIF" style="stroke: #A80036; stroke-width: 1.0;"/><polygon fill="#A80036" points="1107.16,411.76,1107.9848,401.9457,1105.5191,407.0369,1100.4279,404.5712,1107.16,411.76" style="stroke: #A80036; stroke-width: 1.0;"/><!--MD5=[926acebdc36f94a031a23e76276ff245]
link OE to MySQL--><path d="M412.84,475.29 C399.81,491.07 382.46,509.71 364,523 C333.79,544.74 297.18,562.72 264.07,576.5 " fill="none" id="OE-&gt;MySQL" style="stroke: #A80036; stroke-width: 1.0;"/><polygon fill="#A80036" points="259.21,578.5,269.0558,578.7459,263.8283,576.584,265.9902,571.3566,259.21,578.5" style="stroke: #A80036; stroke-width: 1.0;"/><text fill="#000000" font-family="sans-serif" font-size="13" lengthAdjust="spacingAndGlyphs" textLength="59" x="350" y="544.0669">Private IP</text><!--MD5=[600f1d655d09f4890c5ae1153a479187]
link MedSrv to PG--><path d="M566.84,475.01 C549.41,489.83 527.89,507.71 508,523 C484.58,541.01 457.82,560.07 435.43,575.61 " fill="none" id="MedSrv-&gt;PG" style="stroke: #A80036; stroke-width: 1.0;"/><polygon fill="#A80036" points="431.3,578.47,440.9782,576.6446,435.4135,575.6277,436.4305,570.063,431.3,578.47" style="stroke: #A80036; stroke-width: 1.0;"/><text fill="#000000" font-family="sans-serif" font-size="13" lengthAdjust="spacingAndGlyphs" textLength="59" x="496" y="544.0669">Private IP</text><!--MD5=[9095656629584bf207b3941f2af665ee]
link MedSrv to Redis--><path d="M601.44,475.35 C600.93,502.95 600.19,543.43 599.66,572.5 " fill="none" id="MedSrv-&gt;Redis" style="stroke: #A80036; stroke-width: 1.0;"/><polygon fill="#A80036" points="599.56,577.79,603.7137,568.8599,599.6457,572.7907,595.7149,568.7228,599.56,577.79" style="stroke: #A80036; stroke-width: 1.0;"/><text fill="#000000" font-family="sans-serif" font-size="13" lengthAdjust="spacingAndGlyphs" textLength="59" x="601" y="544.0669">Private IP</text><!--MD5=[9c10c7164031489e7912dda256101b48]
link AISvc to PG--><path d="M156.98,475.01 C171.85,497.89 194.88,528.51 222,548 C234.52,557 262.89,568.33 292.62,578.74 " fill="none" id="AISvc-&gt;PG" style="stroke: #A80036; stroke-width: 1.0;"/><polygon fill="#A80036" points="297.41,580.4,290.2276,573.6611,292.6885,578.7546,287.595,581.2155,297.41,580.4" style="stroke: #A80036; stroke-width: 1.0;"/><text fill="#000000" font-family="sans-serif" font-size="13" lengthAdjust="spacingAndGlyphs" textLength="51" x="223" y="544.0669">SSO DB</text><!--MD5=[0c1516cb92c28736e3ceb759b5c3d038]
link PACS to NFS--><path d="M953.13,475.35 C954.2,504.61 955.8,548.34 956.87,577.62 " fill="none" id="PACS-&gt;NFS" style="stroke: #A80036; stroke-width: 1.0;"/><polygon fill="#A80036" points="957.06,582.91,960.7493,573.7782,956.8887,577.9129,952.754,574.0523,957.06,582.91" style="stroke: #A80036; stroke-width: 1.0;"/><text fill="#000000" font-family="sans-serif" font-size="13" lengthAdjust="spacingAndGlyphs" textLength="76" x="956" y="544.0669">DICOM data</text><!--MD5=[3e0000913aaf820d57d2c9412e207af5]
link MedSrv to GCS--><path d="M637.74,475.35 C672.34,505.22 724.41,550.16 758.31,579.42 " fill="none" id="MedSrv-&gt;GCS" style="stroke: #A80036; stroke-width: 1.0;"/><polygon fill="#A80036" points="762.35,582.91,758.1557,573.9989,758.5668,579.6408,752.925,580.0519,762.35,582.91" style="stroke: #A80036; stroke-width: 1.0;"/><text fill="#000000" font-family="sans-serif" font-size="13" lengthAdjust="spacingAndGlyphs" textLength="93" x="720" y="544.0669">Binary storage</text><!--MD5=[6ea138463b80f20750d9cd100e21bd38]
@startuml
skinparam componentStyle uml2

cloud "Google Cloud Platform" as GCP {

  node "GKE Autopilot Cluster\n(medseal-cluster)" as K8s {

    package "Namespace: medseal" {
      component "AI Service\n:4003" as AISvc
      component "AI Frontend\n:80" as AIUI
      component "OpenEMR\n:80" as OE
      component "Medplum Server\n:8103" as MedSrv
      component "Medplum App\n:3000" as MedApp
      component "Orthanc PACS\n:8042" as PACS
      component "OHIF Viewer\n:80" as OHIF
    }
  }

  database "Cloud SQL MySQL 8.0\n(medseal-openemr-db)" as MySQL
  database "Cloud SQL Postgres 16\n(medseal-pg-db)" as PG
  component "Memorystore Redis\n(medseal-redis)" as Redis
  storage "Filestore NFS\n(orthanc_data)" as NFS
  storage "Cloud Storage\n(medplum-binary)" as GCS

  component "GCE Ingress\nLoad Balancer\n(34.54.226.15)" as LB
}

actor "Users" as Users

Users - -> LB : HTTPS
LB - -> AISvc
LB - -> AIUI
LB - -> OE
LB - -> MedSrv
LB - -> MedApp
LB - -> PACS
LB - -> OHIF

OE - -> MySQL : Private IP
MedSrv - -> PG : Private IP
MedSrv - -> Redis : Private IP
AISvc - -> PG : SSO DB
PACS - -> NFS : DICOM data
MedSrv - -> GCS : Binary storage
@enduml

PlantUML version 1.2020.02(Sun Mar 01 10:22:07 UTC 2020)
(GPL source distribution)
Java Runtime: OpenJDK Runtime Environment
JVM: OpenJDK 64-Bit Server VM
Java Version: 17.0.18+8
Operating System: Linux
Default Encoding: UTF-8
Language: en
Country: null
--></g></svg>